<svg width="822" height="508" viewBox="0 0 822 508" fill="none" xmlns="http://www.w3.org/2000/svg">
<path d="M158.1 412.65L193.65 459H157.05L129.3 415.5H129V459H99.6V345.9H143.55C165.9 345.9 182.85 356.55 182.85 380.7C182.85 396.3 174.15 409.8 158.1 412.65ZM129 368.4V396.6H131.85C141.45 396.6 152.25 394.8 152.25 382.5C152.25 370.2 141.45 368.4 131.85 368.4H129ZM223.003 409.35H254.653C253.303 402 246.553 397.2 239.203 397.2C231.253 397.2 224.653 401.4 223.003 409.35ZM280.003 422.25V425.1H222.553C222.553 436.2 228.403 442.2 239.653 442.2C245.503 442.2 249.703 440.25 252.703 435.15H278.953C276.853 444.15 271.453 450.75 264.403 455.1C257.353 459.45 248.653 461.55 239.803 461.55C214.303 461.55 195.253 447.15 195.253 420.6C195.253 394.95 212.803 379.5 237.853 379.5C264.553 379.5 280.003 396 280.003 422.25ZM318.906 382.05V390.75H319.206C324.156 383.1 333.456 379.5 342.456 379.5C365.406 379.5 381.306 398.7 381.306 420.75C381.306 442.95 365.556 461.55 342.756 461.55C333.906 461.55 324.756 458.4 318.906 451.65V497.4H291.606V382.05H318.906ZM335.556 403.2C324.456 403.2 318.006 411.15 318.006 420.6C318.006 430.35 324.456 437.85 335.556 437.85C346.656 437.85 353.106 430.35 353.106 420.6C353.106 411.15 346.656 403.2 335.556 403.2ZM393.702 399.6H436.602V422.1H393.702V399.6ZM454.092 459V345.9H495.792C527.292 345.9 553.242 370.65 553.242 402.45C553.242 434.25 527.142 459 495.792 459H454.092ZM483.492 370.8V434.1H490.092C507.642 434.1 522.642 424.5 522.642 402.45C522.642 382.2 509.292 370.8 490.392 370.8H483.492ZM593.585 382.05V394.65H593.885C599.135 385.2 608.135 381 618.785 381H624.035V407.25C620.285 405.15 616.685 404.7 612.485 404.7C597.335 404.7 593.585 414.75 593.585 427.95V459H566.285V382.05H593.585ZM661.554 382.05V459H634.254V382.05H661.554ZM647.904 337.2C656.304 337.2 663.204 344.1 663.204 352.5C663.204 360.9 656.304 367.8 647.904 367.8C639.504 367.8 632.604 360.9 632.604 352.5C632.604 344.1 639.504 337.2 647.904 337.2ZM706.818 334.5V459H679.518V334.5H706.818ZM752.081 334.5V459H724.781V334.5H752.081Z" fill="black"/>
<path fill-rule="evenodd" clip-rule="evenodd" d="M515.643 0H660.135C687.94 0 715.234 5.16656 740.371 17.3572C765.321 29.4456 785.898 47.3846 800.508 71.0242C815.401 95.1177 822 122.274 822 150.505C822 178.729 815.398 205.882 800.508 229.973C785.898 253.619 765.321 271.548 740.371 283.646C715.234 295.83 687.94 301 660.135 301H562.307L584.067 252.199H589.678H660.135C682.338 252.199 702.03 248.03 719.214 239.701C736.388 231.37 749.717 219.553 759.174 204.252C768.631 188.953 773.363 171.037 773.363 150.505C773.363 129.966 768.631 112.05 759.174 96.7483C749.717 81.4437 736.388 69.6302 719.214 61.3017C702.03 52.9732 682.338 48.801 660.135 48.801H564.286V87.2432H563.97V97.4868C569.677 96.3647 573.867 96.6555 575.247 99.047C577.226 102.497 572.169 108.21 563.97 114.195V144.031C569.677 142.902 573.867 143.203 575.247 145.591C577.226 149.037 572.169 154.751 563.97 160.736V190.734C569.677 189.602 573.867 189.903 575.247 192.291C577.226 195.744 572.169 201.451 563.97 207.436V236.124C569.677 234.992 573.867 235.293 575.247 237.681C577.478 241.569 570.78 248.334 560.711 255.118L540.254 301L527.015 272.319C515.866 276.395 506.616 277.862 504.431 274.074C500.548 267.318 523.65 251.857 544.581 242.688C543.785 242.665 530.625 242.374 515.7 247.707V230.241C509.996 231.367 505.803 231.076 504.431 228.684C500.554 221.932 523.58 206.518 544.476 197.343L544.62 197.074C544.62 197.074 531.103 196.585 515.7 202.09V183.534C509.996 184.663 505.803 184.369 504.431 181.974C500.564 175.257 523.424 159.92 544.269 150.735C542.058 150.703 529.653 150.77 515.7 155.755V136.997C509.996 138.122 505.803 137.828 504.431 135.434C500.548 128.684 523.65 113.22 544.581 104.054L544.62 103.983C544.62 103.983 531.103 103.491 515.7 109V87.2432H515.643V0ZM657.816 206.285C675.194 206.285 689.144 201.349 699.665 191.47C710.187 181.59 715.448 167.936 715.448 150.505C715.448 133.064 710.187 119.413 699.665 109.534C689.144 99.6513 675.194 94.7085 657.816 94.7085H621.622V206.285H657.816Z" fill="black"/>
<path fill-rule="evenodd" clip-rule="evenodd" d="M412.5 239L468.075 183.322C498.642 152.699 498.642 102.59 468.075 71.9678C437.509 41.3441 387.491 41.3441 356.925 71.9678C326.358 102.59 326.358 152.699 356.925 183.322L412.5 239ZM413.313 196.85L442.303 148.658V136.411C437.81 137.642 433.161 138.285 428.468 138.311C453.634 130.257 471.383 120.397 469.866 114.716C468.77 110.623 457.931 109.663 442.303 111.549V101.029C437.81 102.259 433.161 102.902 428.468 102.929C433.396 101.353 438.035 99.7067 442.303 98.0363V98.2119C459.843 91.3499 471.086 84.078 469.866 79.5097C468.242 73.4446 447.166 75.5862 442.303 76.166V65.4428C433.269 61.0728 423.158 58.6186 412.5 58.6186C401.888 58.6186 391.817 61.0529 382.812 65.3871V88.4028C387.305 87.1724 391.955 86.5294 396.648 86.5048C392 87.9892 387.612 89.5388 383.546 91.11L383.416 91.161L383.213 91.2385L383.012 91.3178L382.812 91.3952C365.271 98.2582 354.03 105.532 355.25 110.098C356.346 114.194 367.185 115.153 382.812 113.265V123.788C387.305 122.557 391.955 121.914 396.648 121.888C392 123.372 387.612 124.923 383.546 126.493L383.416 126.546L383.213 126.623L383.012 126.703L382.812 126.781C365.271 133.641 354.03 140.915 355.25 145.483C356.346 149.576 367.185 150.536 382.812 148.65L411.803 196.851L412.5 196.862L413.313 196.85Z" fill="black"/>
<path d="M248.38 186.78L223.225 246.032C245.26 264.43 238.987 252.399 245.718 301L282.228 215.028C260.478 196.879 266.734 208.893 260.02 159.367L248.38 186.78Z" fill="black"/>
<path d="M234.273 175.008L197.773 260.991C191.931 218.827 197.188 224.171 180.681 210.407L64.161 113.31H64.1799V113.3H160.338V113.31C162.354 113.3 164.303 113.232 166.197 113.118H166.248H166.362C189.794 112.226 211.689 108.363 228.915 100.212C240.115 94.9018 249.417 87.7876 255.982 78.5196C261.919 70.1469 265.563 60.1083 266.34 48.1987C273.276 59.5733 276.722 72.7651 276.722 87.7674C276.722 103.742 271.732 118.196 261.747 131.129C251.759 144.065 237.948 153.992 220.28 160.928H217.393L234.273 175.008Z" fill="black"/>
<path d="M296.335 226.796L307.979 199.386L321.11 296.168H283.453L271.183 286.048L296.335 226.796Z" fill="black"/>
<mask id="mask0_2020_9" style="mask-type:luminance" maskUnits="userSpaceOnUse" x="0" y="2" width="286" height="94">
<path d="M0 95.6349H285.684V2.00001H0V95.6349Z" fill="white"/>
</mask>
<g mask="url(#mask0_2020_9)">
<path d="M202.596 95.6581V95.5908H202.63V95.5235H202.663V95.4225H202.697V95.3552H202.731V95.2543H202.764V95.1533H202.798V95.086H202.832V94.985H202.865V94.9177H202.899V94.8168H202.933V94.7158H202.966V94.6485H203V94.5476H203.034V94.4466H203.067V94.3456H203.101V94.2447H203.135V94.1437H203.168V94.0428H203.202V93.9418H203.235V93.8409H203.269V93.7399H203.303V93.6053H203.336V93.4707H203.37V93.3697H203.404V93.2351H203.437V93.1342H203.471V92.9995H203.505V92.8649H203.538V92.764H203.572V92.5957H203.606V92.4611H203.639V92.2928H203.673V92.1582H203.707V91.99H203.74V91.8554H203.774V91.6871H203.808V91.4852H203.841V91.2833H203.875V91.0813H203.909V90.8794H203.942V90.6775H203.976V90.4083H204.009V90.1054H204.043V89.8362H204.077V89.4997H204.11V88.9949H204.144V88.4901H204.178V86.4036H204.144V85.6633H204.11V85.2595H204.077V84.8556H204.043V84.4518H204.009V84.1489H203.976V83.9134H203.942V83.6441H203.909V83.4086H203.875V83.173H203.841V82.9374H203.808V82.7355H203.774V82.5673H203.74V82.399H203.707V82.2307H203.673V82.0625H203.639V81.8942H203.606V81.7596H203.572V81.5913H203.538V81.4231H203.505V81.2548H203.471V81.1202H203.437V81.0192H203.404V80.8846H203.37V80.7837H203.336V80.6491H203.303V80.5145H203.269V80.4135H203.235V80.2789H203.202V80.1443H203.168V80.0433H203.135V79.9087H203.101V79.8077H203.067V79.7068H203.034V79.6058H203V79.5049H202.966V79.4039H202.933V79.303H202.899V79.2357H202.865V79.1347H202.832V79.0337H202.798V78.9328H202.764V78.8318H202.731V78.7309H202.697V78.6299H202.663V78.5626H202.63V78.4616H202.596V78.3607H202.562V78.2934H202.529V78.2261H202.495V78.1251H202.461V78.0578H202.428V77.9905H202.394V77.8896H202.361V77.8222H202.327V77.7549H202.293V77.654H202.26V77.5867H202.226V77.5194H202.192V77.4184H202.159V77.3511H202.125V77.2838H202.091V77.1828H202.058V77.1155H202.024V77.0482H201.99V76.9809H201.957V76.9136H201.923V76.8463H201.889V76.8127H201.856V76.7454H201.822V76.6781H201.788V76.6108H201.755V76.5434H201.721V76.4761H201.687V76.4088H201.654V76.3415H201.62V76.2742H201.587V76.2069H201.553V76.1396H201.519V76.0723H201.486V76.005H201.452V75.9377H201.418V75.8704H201.385V75.8367H201.351V75.7694H201.317V75.7021H201.284V75.6685H201.25V75.6012H201.216V75.5339H201.183V75.5002H201.149V75.4329H201.115V75.3656H201.082V75.332H201.048V75.2647H201.014V75.231H200.981V75.1637H200.947V75.0964H200.913V75.0627H200.88V74.9954H200.846V74.9281H200.812V74.8945H200.779V74.8272H200.745V74.7599H200.712V74.7262H200.678V74.6589H200.644V74.6253H200.611V74.5579H200.577V74.5243H200.543V74.457H200.51V74.4233H200.476V74.3897H200.442V74.3224H200.409V74.2887H200.375V74.2214H200.341V74.1878H200.308V74.1541H200.274V74.0868H200.24V74.0532H200.207V73.9859H200.173V73.9522H200.139V73.9186H200.106V73.8512H200.072V73.8176H200.038V73.7503H200.005V73.7166H199.971V73.683H199.938V73.6157H199.904V73.582H199.87V73.5147H199.837V73.4811H199.803V73.4474H199.769V73.4138H199.736V73.3465H199.702V73.3128H199.668V73.2792H199.635V73.2455H199.601V73.1782H199.567V73.1445H199.534V73.1109H199.5V73.0772H199.466V73.0436H199.433V72.9763H199.399V72.9426H199.365V72.909H199.332V72.8753H199.298V72.808H199.264V72.7744H199.231V72.7407H199.197V72.7071H199.164V72.6734H199.13V72.6061H199.096V72.5724H199.063V72.5388H199.029V72.5051H198.995V72.4715H198.962V72.4042H198.928V72.3705H198.894V72.3369H198.861V72.3032H198.827V72.2696H198.793V72.2359H198.76V72.2023H198.726V72.1686H198.692V72.135H198.659V72.1013H198.625V72.0677H198.591V72.034H198.558V71.9667H198.524V71.9331H198.49V71.8994H198.457V71.8657H198.423V71.8321H198.39V71.7984H198.356V71.7648H198.322V71.7311H198.289V71.6975H198.255V71.6638H198.221V71.6302H198.188V71.5965H198.154V71.5629H198.12V71.5292H198.087V71.4956H198.053V71.4619H198.019V71.4283H197.986V71.361H197.952V71.3273H197.918V71.2937H197.885V71.26H197.817V71.2263H197.784V71.1927H197.75V71.159H197.716V71.1254H197.683V71.0917H197.649V71.0581H197.616V71.0244H197.582V70.9908H197.548V70.9571H197.515V70.9235H197.481V70.8898H197.447V70.8562H197.414V70.8225H197.346V70.7889H197.313V70.7552H197.279V70.7216H197.245V70.6879H197.212V70.6543H197.178V70.6206H197.144V70.5869H197.111V70.5533H197.077V70.5196H197.043V70.486H197.01V70.4523H196.976V70.4187H196.942V70.385H196.875V70.3514H196.842V70.3177H196.808V70.2841H196.774V70.2504H196.741V70.2168H196.707V70.1831H196.64V70.1495H196.606V70.1158H196.572V70.0822H196.539V70.0485H196.471V70.0149H196.438V69.9812H196.404V69.9475H196.37V69.9139H196.337V69.8802H196.269V69.8466H196.236V69.8129H196.202V69.7793H196.168V69.7456H196.101V69.712H196.067V69.6783H196.034V69.6447H196V69.611H195.933V69.5774H195.899V69.5437H195.866V69.5101H195.832V69.4764H195.798V69.4428H195.731V69.4091H195.697V69.3755H195.664V69.3418H195.596V69.3082H195.563V69.2745H195.529V69.2408H195.462V69.2072H195.428V69.1735H195.394V69.1399H195.327V69.1062H195.293V69.0726H195.226V69.0389H195.193V69.0053H195.159V68.9716H195.092V68.938H195.058V68.9043H194.991V68.8707H194.957V68.837H194.923V68.8034H194.856V68.7697H194.822V68.7361H194.755V68.7024H194.721V68.6688H194.688V68.6351H194.62V68.6014H194.587V68.5678H194.519V68.5341H194.486V68.5005H194.452V68.4668H194.385V68.4332H194.351V68.3995H194.284V68.3659H194.25V68.3322H194.183V68.2986H194.116V68.2649H194.082V68.2313H194.015V68.1976H193.981V68.164H193.914V68.1303H193.88V68.0967H193.813V68.063H193.745V68.0294H193.712V67.9957H193.645V67.962H193.611V67.9284H193.544V67.8947H193.476V67.8611H193.443V67.8274H193.375V67.7938H193.342V67.7601H193.274V67.7265H193.241V67.6928H193.173V67.6592H193.106V67.6255H193.072V67.5919H193.005V67.5582H192.938V67.5246H192.904V67.4909H192.837V67.4573H192.77V67.4236H192.702V67.39H192.635V67.3563H192.601V67.3227H192.534V67.289H192.467V67.2553H192.399V67.2217H192.332V67.188H192.298V67.1544H192.231V67.1207H192.164V67.0871H192.096V67.0534H192.063V67.0198H191.996V66.9861H191.928V66.9525H191.861V66.9188H191.794V66.8852H191.76V66.8515H191.693V66.8179H191.625V66.7842H191.558V66.7506H191.491V66.7169H191.423V66.6833H191.356V66.6496H191.289V66.6159H191.222V66.5823H191.154V66.5486H191.087V66.515H191.02V66.4813H190.952V66.4477H190.885V66.414H190.818V66.3804H190.75V66.3467H190.683V66.3131H190.616V66.2794H190.548V66.2458H190.481V66.2121H190.414V66.1785H190.347V66.1448H190.246V66.1112H190.178V66.0775H190.111V66.0439H190.044V66.0102H189.976V65.9765H189.909V65.9429H189.808V65.9092H189.741V65.8756H189.674V65.8419H189.573V65.8083H189.505V65.7746H189.438V65.741H189.371V65.7073H189.27V65.6737H189.202V65.64H189.135V65.6064H189.034V65.5727H188.967V65.5391H188.9V65.5054H188.799V65.4718H188.731V65.4381H188.664V65.4045H188.597V65.3708H188.496V65.3372H188.428V65.3035H188.327V65.2698H188.226V65.2362H188.159V65.2025H188.058V65.1689H187.991V65.1352H187.89V65.1016H187.789V65.0679H187.722V65.0343H187.621V65.0006H187.52V64.967H187.452V64.9333H187.351V64.8997H187.284V64.866H187.183V64.8324H187.082V64.7987H187.015V64.7651H186.914V64.7314H186.847V64.6978H186.746V64.6641H186.645V64.6304H186.544V64.5968H186.443V64.5631H186.342V64.5295H186.241V64.4958H186.14V64.4622H186.039V64.4285H185.938V64.3949H185.837V64.3612H185.736V64.3276H185.635V64.2939H185.534V64.2603H185.433V64.2266H185.332V64.193H185.231V64.1593H185.13V64.1257H185.029V64.092H184.895V64.0584H184.794V64.0247H184.659V63.991H184.558V63.9574H184.457V63.9237H184.323V63.8901H184.222V63.8564H184.087V63.8228H183.986V63.7891H183.852V63.7555H183.751V63.7218H183.65V63.6882H183.515V63.6545H183.414V63.6209H183.28V63.5872H183.179V63.5536H183.044V63.5199H182.909V63.4863H182.775V63.4526H182.64V63.419H182.506V63.3853H182.371V63.3517H182.236V63.318H182.102V63.2843H181.967V63.2507H181.832V63.217H181.698V63.1834H181.563V63.1497H181.429V63.1161H181.294V63.0824H181.159V63.0488H181.025V63.0151H180.857V62.9815H180.688V62.9478H180.554V62.9142H180.385V62.8805H180.217V62.8469H180.083V62.8132H179.914V62.7796H179.746V62.7459H179.611V62.7123H179.443V62.6786H179.309V62.6449H179.14V62.6113H178.938V62.5776H178.77V62.544H178.568V62.5103H178.4V62.4767H178.198V62.443H178.03V62.4094H177.828V62.3757H177.66V62.3421H177.491V62.3084H177.289V62.2748H177.121V62.2411H176.886V62.2075H176.684V62.1738H176.448V62.1402H176.246V62.1065H176.011V62.0729H175.809V62.0392H175.573V62.0056H175.338V61.9719H175.136V61.9382H174.9V61.9046H174.664V61.8709H174.395V61.8373H174.126V61.8036H173.857V61.77H173.554V61.7363H173.285V61.7027H173.016V61.669H172.746V61.6354H172.477V61.6017H172.141V61.5681H171.77V61.5344H171.434V61.5008H171.097V61.4671H170.761V61.4335H170.391V61.3998H170.02V61.3661H169.583V61.3325H169.112V61.2988H168.641V61.2652H168.203V61.2315H167.732V61.1979H167.093V61.1642H166.453V61.1306H165.78V61.0969H165.107V61.0633H163.963V61.0296H162.819V60.996H160.665V60.9623H68.0869V60.9287H68.0532V60.895H68.0196V60.8614H67.9859V60.8277H67.9523V60.7941H67.9186V60.7604H67.8513V60.7268H67.8176V60.6931H67.784V60.6594H67.7503V60.6258H67.7167V60.5921H67.683V60.5585H67.6494V60.5248H67.5821V60.4912H67.5484V60.4575H67.5148V60.4239H67.4811V60.3902H67.4475V60.3566H67.4138V60.3229H67.3465V60.2893H67.3129V60.2556H67.2792V60.222H67.2456V60.1883H67.2119V60.1547H67.1783V60.121H67.1446V60.0874H67.0773V60.0537H67.0436V60.0201H67.01V59.9864H66.9763V59.9527H66.9427V59.9191H66.909V59.8854H66.8417V59.8518H66.8081V59.8181H66.7744V59.7845H66.7408V59.7508H66.7071V59.7172H66.6735V59.6835H66.6398V59.6499H66.5725V59.6162H66.5389V59.5826H66.5052V59.5489H66.4715V59.5153H66.4379V59.4816H66.4042V59.448H66.3369V59.4143H66.3033V59.3806H66.2696V59.347H66.236V59.3133H66.2023V59.2797H66.1687V59.246H66.1014V59.2124H66.0677V59.1787H66.0341V59.1451H66.0004V59.1114H65.9668V59.0778H65.9331V59.0441H65.8995V59.0105H65.8322V58.9768H65.7985V58.9432H65.7648V58.9095H65.7312V58.8759H65.6975V58.8422H65.6639V58.8086H65.5966V58.7749H65.5629V58.7413H65.5293V58.7076H65.4956V58.6739H65.462V58.6403H65.4283V58.6066H65.3947V58.573H65.3274V58.5393H65.2937V58.5057H65.2601V58.472H65.2264V58.4384H65.1927V58.4047H65.1591V58.3711H65.0918V58.3374H65.0581V58.3038H65.0245V58.2701H64.9908V58.2365H64.9572V58.2028H64.9235V58.1692H64.8562V58.1355H64.8226V58.1019H64.7889V58.0682H64.7553V58.0345H64.7216V58.0009H64.688V57.9672H64.6543V57.9336H64.587V57.8999H64.5534V57.8663H64.5197V57.8326H64.486V57.799H64.4524V57.7653H64.4187V57.7317H64.3514V57.698H64.3178V57.6644H64.2841V57.6307H64.2505V57.5971H64.2168V57.5634H64.1832V57.5298H64.1495V57.4961H64.0822V57.4625H64.0486V57.4288H64.0149V57.3951H63.9813V57.3615H63.9476V57.3278H63.914V57.2942H63.8466V57.2605H63.813V57.2269H63.7793V57.1932H63.7457V57.1596H63.712V57.1259H63.6784V57.0923H63.6447V57.0586H63.5774V57.025H63.5438V56.9913H63.5101V56.9577H63.4765V56.924H63.4428V56.8904H63.4092V56.8567H63.3419V56.8231H63.3082V56.7894H63.2746V56.7558H63.2409V56.7221H63.2073V56.6884H63.1736V56.6548H63.1063V56.6211H63.0726V56.5875H63.039V56.5538H63.0053V56.5202H62.9717V56.4865H62.938V56.4529H62.9044V56.4192H62.8371V56.3856H62.8034V56.3519H62.7698V56.3183H62.7361V56.2846H62.7025V56.251H62.6688V56.2173H62.6015V56.1837H62.5679V56.15H62.5342V56.1164H62.5005V56.0827H62.4669V56.049H62.4332V56.0154H62.3996V55.9817H62.3323V55.9481H62.2986V55.9144H62.265V55.8808H62.2313V55.8471H62.1977V55.8135H62.164V55.7798H62.0967V55.7462H62.0631V55.7125H62.0294V55.6789H61.9958V55.6452H61.9621V55.6116H61.9285V55.5779H61.8611V55.5443H61.8275V55.5106H61.7938V55.477H61.7602V55.4433H61.7265V55.4096H61.6929V55.376H61.6592V55.3423H61.5919V55.3087H61.5583V55.275H61.5246V55.2414H61.491V55.2077H61.4573V55.1741H61.4237V55.1404H61.3564V55.1068H61.3227V55.0731H61.2891V55.0395H61.2554V55.0058H61.2218V54.9722H61.1881V54.9385H61.1544V54.9049H61.0871V54.8712H61.0535V54.8376H61.0198V54.8039H60.9862V54.7703H60.9525V54.7366H60.9189V54.7029H60.8516V54.6693H60.8179V54.6356H60.7843V54.602H60.7506V54.5683H60.717V54.5347H60.6833V54.501H60.616V54.4674H60.5824V54.4337H60.5487V54.4001H60.515V54.3664H60.4814V54.3328H60.4477V54.2991H60.4141V54.2655H60.3468V54.2318H60.3131V54.1982H60.2795V54.1645H60.2458V54.1309H60.2122V54.0972H60.1785V54.0635H60.1112V54.0299H60.0776V53.9962H60.0439V53.9626H60.0103V53.9289H59.9766V53.8953H59.943V53.8616H59.9093V53.828H59.842V53.7943H59.8083V53.7607H59.7747V53.727H59.741V53.6934H59.7074V53.6597H59.6737V53.6261H59.6064V53.5924H59.5728V53.5588H59.5391V53.5251H59.5055V53.4915H59.4718V53.4578H59.4382V53.4241H59.4045V53.3905H59.3372V53.3568H59.3036V53.3232H59.2699V53.2895H59.2363V53.2559H59.2026V53.2222H59.1689V53.1886H59.1016V53.1549H59.068V53.1213H59.0343V53.0876H59.0007V53.054H58.967V53.0203H58.9334V52.9867H58.8661V52.953H58.8324V52.9194H58.7988V52.8857H58.7651V52.8521H58.7315V52.8184H58.6978V52.7848H58.6642V52.7511H58.5969V52.7174H58.5632V52.6838H58.5295V52.6501H58.4959V52.6165H58.4622V52.5828H58.4286V52.5492H58.3613V52.5155H58.3276V52.4819H58.294V52.4482H58.2603V52.4146H58.2267V52.3809H58.193V52.3473H58.1594V52.3136H58.0921V52.28H58.0584V52.2463H58.0248V52.2127H57.9911V52.179H57.9575V52.1454H57.9238V52.1117H57.8565V52.078H57.8228V52.0444H57.7892V52.0107H57.7555V51.9771H57.7219V51.9434H57.6882V51.9098H57.6209V51.8761H57.5873V51.8425H57.5536V51.8088H57.52V51.7752H57.4863V51.7415H57.4527V51.7079H57.419V51.6742H57.3517V51.6406H57.3181V51.6069H57.2844V51.5733H57.2508V51.5396H57.2171V51.506H57.1834V51.4723H57.1161V51.4386H57.0825V51.405H57.0488V51.3713H57.0152V51.3377H56.9815V51.304H56.9479V51.2704H56.9142V51.2367H56.8469V51.2031H56.8133V51.1694H56.7796V51.1358H56.746V51.1021H56.7123V51.0685H56.6787V51.0348H56.6114V51.0012H56.5777V50.9675H56.544V50.9339H56.5104V50.9002H56.4767V50.8666H56.4431V50.8329H56.4094V50.7993H56.3421V50.7656H56.3085V50.7319H56.2748V50.6983H56.2412V50.6646H56.2075V50.631H56.1739V50.5973H56.1066V50.5637H56.0729V50.53H56.0393V50.4964H56.0056V50.4627H55.972V50.4291H55.9383V50.3954H55.871V50.3618H55.8373V50.3281H55.8037V50.2945H55.77V50.2608H55.7364V50.2272H55.7027V50.1935H55.6691V50.1599H55.6018V50.1262H55.5681V50.0925H55.5345V50.0589H55.5008V50.0252H55.4672V49.9916H55.4335V49.9579H55.3662V49.9243H55.3326V49.8906H55.2989V49.857H55.2653V49.8233H55.2316V49.7897H55.1979V49.756H55.1643V49.7224H55.097V49.6887H55.0633V49.6551H55.0297V49.6214H54.996V49.5878H54.9624V49.5541H54.9287V49.5205H54.8614V49.4868H54.8278V49.4531H54.7941V49.4195H54.7605V49.3858H54.7268V49.3522H54.6932V49.3185H54.6259V49.2849H54.5922V49.2512H54.5585V49.2176H54.5249V49.1839H54.4912V49.1503H54.4576V49.1166H54.4239V49.083H54.3566V49.0493H54.323V49.0157H54.2893V48.982H54.2557V48.9484H54.222V48.9147H54.1884V48.8811H54.1211V48.8474H54.0874V48.8138H54.0538V48.7801H54.0201V48.7464H53.9865V48.7128H53.9528V48.6791H53.9191V48.6455H53.8518V48.6118H53.8182V48.5782H53.7845V48.5445H53.7509V48.5109H53.7172V48.4772H53.6836V48.4436H53.6163V48.4099H53.5826V48.3763H53.549V48.3426H53.5153V48.309H53.4817V48.2753H53.448V48.2417H53.3807V48.208H53.3471V48.1744H53.3134V48.1407H53.2798V48.107H53.2461V48.0734H53.2124V48.0397H53.1788V48.0061H53.1115V47.9724H53.0778V47.9388H53.0442V47.9051H53.0105V47.8715H52.9769V47.8378H52.9432V47.8042H52.8759V47.7705H52.8423V47.7369H52.8086V47.7032H52.775V47.6696H52.7413V47.6359H52.7077V47.6023H52.674V47.5686H52.6067V47.535H52.573V47.5013H52.5394V47.4676H52.5057V47.434H52.4721V47.4003H52.4384V47.3667H52.3711V47.333H52.3375V47.2994H52.3038V47.2657H52.2702V47.2321H52.2365V47.1984H52.2029V47.1648H52.1692V47.1311H52.1019V47.0975H52.0683V47.0638H52.0346V47.0302H52.001V46.9965H51.9673V46.9629H51.9336V46.9292H51.8663V46.8956H51.8327V46.8619H51.799V46.8283H51.7654V46.7946H51.7317V46.7609H51.6981V46.7273H51.6308V46.6936H51.5971V46.66H51.5635V46.6263H51.5298V46.5927H51.4962V46.559H51.4625V46.5254H51.4289V46.4917H51.3616V46.4581H51.3279V46.4244H51.2943V46.3908H51.2606V46.3571H51.2269V46.3235H51.1933V46.2898H51.126V46.2562H51.0923V46.2225H51.0587V46.1889H51.025V46.1552H50.9914V46.1215H50.9577V46.0879H50.9241V46.0542H50.8568V46.0206H50.8231V45.9869H50.7895V45.9533H50.7558V45.9196H50.7222V45.886H50.6885V45.8523H50.6212V45.8187H50.5875V45.785H50.5539V45.7514H50.5202V45.7177H50.4866V45.6841H50.4529V45.6504H50.3856V45.6168H50.352V45.5831H50.3183V45.5495H50.2847V45.5158H50.251V45.4821H50.2174V45.4485H50.1837V45.4148H50.1164V45.3812H50.0828V45.3475H50.0491V45.3139H50.0155V45.2802H49.9818V45.2466H49.9482V45.2129H49.8808V45.1793H49.8472V45.1456H49.8135V45.112H49.7799V45.0783H49.7462V45.0447H49.7126V45.011H49.6789V44.9774H49.6116V44.9437H49.578V44.9101H49.5443V44.8764H49.5107V44.8428H49.477V44.8091H49.4434V44.7754H49.3761V44.7418H49.3424V44.7081H49.3088V44.6745H49.2751V44.6408H49.2414V44.6072H49.2078V44.5735H49.1405V44.5399H49.1068V44.5062H49.0732V44.4726H49.0395V44.4389H49.0059V44.4053H48.9722V44.3716H48.9386V44.338H48.8713V44.3043H48.8376V44.2707H48.804V44.237H48.7703V44.2034H48.7367V44.1697H48.703V44.136H48.6357V44.1024H48.602V44.0687H48.5684V44.0351H48.5347V44.0014H48.5011V43.9678H48.4674V43.9341H48.4338V43.9005H48.3665V43.8668H48.3328V43.8332H48.2992V43.7995H48.2655V43.7659H48.2319V43.7322H48.1982V43.6986H48.1309V43.6649H48.0973V43.6313H48.0636V43.5976H48.03V43.564H47.9963V43.5303H47.9627V43.4966H47.929V43.463H47.8617V43.4293H47.828V43.3957H47.7944V43.362H47.7607V43.3284H47.7271V43.2947H47.6934V43.2611H47.6261V43.2274H47.5925V43.1938H47.5588V43.1601H47.5252V43.1265H47.4915V43.0928H47.4579V43.0592H47.3906V43.0255H47.3569V42.9919H47.3232V42.9582H47.2896V42.9246H47.2559V42.8909H47.2223V42.8573H47.1886V42.8236H47.1213V42.7899H47.0877V42.7563H47.054V42.7226H47.0204V42.689H46.9867V42.6553H46.9531V42.6217H46.8858V42.588H46.8521V42.5544H46.8185V42.5207H46.7848V42.4871H46.7512V42.4534H46.7175V42.4198H46.6839V42.3861H46.6165V42.3525H46.5829V42.3188H46.5492V42.2852H46.5156V42.2515H46.4819V42.2178H46.4483V42.1842H46.381V42.1505H46.3473V42.1169H46.3137V42.0832H46.28V42.0496H46.2464V42.0159H46.2127V41.9823H46.1454V41.9486H46.1118V41.915H46.0781V41.8813H46.0445V41.8477H46.0108V41.814H45.9771V41.7804H45.9435V41.7467H45.8762V41.7131H45.8425V41.6794H45.8089V41.6458H45.7752V41.6121H45.7416V41.5785H45.7079V41.5448H45.6406V41.5111H45.607V41.4775H45.5733V41.4438H45.5397V41.4102H45.506V41.3765H45.4724V41.3429H45.4387V41.3092H45.3714V41.2756H45.3377V41.2419H45.3041V41.2083H45.2704V41.1746H45.2368V41.141H45.2031V41.1073H45.1358V41.0737H45.1022V41.04H45.0685V41.0064H45.0349V40.9727H45.0012V40.9391H44.9676V40.9054H44.9339V40.8717H44.8666V40.8381H44.833V40.8044H44.7993V40.7708H44.7657V40.7371H44.732V40.7035H44.6984V40.6698H44.631V40.6362H44.5974V40.6025H44.5637V40.5689H44.5301V40.5352H44.4964V40.5016H44.4628V40.4679H44.3955V40.4343H44.3618V40.4006H44.3282V40.367H44.2945V40.3333H44.2609V40.2997H44.2272V40.266H44.1936V40.2323H44.1263V40.1987H44.0926V40.165H44.059V40.1314H44.0253V40.0977H43.9916V40.0641H43.958V40.0304H43.8907V39.9968H43.857V39.9631H43.8234V39.9295H43.7897V39.8958H43.7561V39.8622H43.7224V39.8285H43.6888V39.7949H43.6215V39.7612H43.5878V39.7276H43.5542V39.6939H43.5205V39.6603H43.4869V39.6266H43.4532V39.593H43.3859V39.5593H43.3522V39.5256H43.3186V39.492H43.2849V39.4583H43.2513V39.4247H43.2176V39.391H43.1503V39.3574H43.1167V39.3237H43.083V39.2901H43.0494V39.2564H43.0157V39.2228H42.9821V39.1891H42.9484V39.1555H42.8811V39.1218H42.8475V39.0882H42.8138V39.0545H42.7802V39.0209H42.7465V38.9872H42.7129V38.9536H42.6455V38.9199H42.6119V38.8862H42.5782V38.8526H42.5446V38.8189H42.5109V38.7853H42.4773V38.7516H42.4436V38.718H42.3763V38.6843H42.3427V38.6507H42.309V38.617H42.2754V38.5834H42.2417V38.5497H42.2081V38.5161H42.1408V38.4824H42.1071V38.4488H42.0735V38.4151H42.0398V38.3815H42.0061V38.3478H41.9725V38.3142H41.9052V38.2805H41.8715V38.2468H41.8379V38.2132H41.8042V38.1795H41.7706V38.1459H41.7369V38.1122H41.7033V38.0786H41.636V38.0449H41.6023V38.0113H41.5687V37.9776H41.535V37.944H41.5014V37.9103H41.4677V37.8767H41.4004V37.843H41.3667V37.8094H41.3331V37.7757H41.2994V37.7421H41.2658V37.7084H41.2321V37.6748H41.1985V37.6411H41.1312V37.6075H41.0975V37.5738H41.0639V37.5401H41.0302V37.5065H40.9966V37.4728H40.9629V37.4392H40.8956V37.4055H40.862V37.3719H40.8283V37.3382H40.7947V37.3046H40.761V37.2709H40.7274V37.2373H40.6937V37.2036H40.6264V37.17H40.5927V37.1363H40.5591V37.1027H40.5254V37.069H40.4918V37.0354H40.4581V37.0017H40.3908V36.9681H40.3572V36.9344H40.3235V36.9007H40.2899V36.8671H40.2562V36.8334H40.2226V36.7998H40.1553V36.7661H40.1216V36.7325H40.088V36.6988H40.0543V36.6652H40.0206V36.6315H39.987V36.5979H39.9533V36.5642H39.886V36.5306H39.8524V36.4969H39.8187V36.4633H39.7851V36.4296H39.7514V36.396H39.7178V36.3623H39.6505V36.3287H39.6168V36.295H39.5832V36.2613H39.5495V36.2277H39.5159V36.194H39.4822V36.1604H39.4486V36.1267H39.3812V36.0931H39.3476V36.0594H39.3139V36.0258H39.2803V35.9921H39.2466V35.9585H39.213V35.9248H39.1457V35.8912H39.112V35.8575H39.0784V35.8239H39.0447V35.7902H39.0111V35.7566H38.9774V35.7229H38.9101V35.6893H38.8765V35.6556H38.8428V35.622H38.8092V35.5883H38.7755V35.5546H38.7419V35.521H38.7082V35.4873H38.6409V35.4537H38.6072V35.42H38.5736V35.3864H38.5399V35.3527H38.5063V35.3191H38.4726V35.2854H38.4053V35.2518H38.3717V35.2181H38.338V35.1845H38.3044V35.1508H38.2707V35.1172H38.2371V35.0835H38.2034V35.0499H38.1361V35.0162H38.1025V34.9826H38.0688V34.9489H38.0351V34.9152H38.0015V34.8816H37.9678V34.8479H37.9005V34.8143H37.8669V34.7806H37.8332V34.747H37.7996V34.7133H37.7659V34.6797H37.7323V34.646H37.6986V34.6124H37.6313V34.5787H37.5977V34.5451H37.564V34.5114H37.5304V34.4778H37.4967V34.4441H37.4631V34.4105H37.3958V34.3768H37.3621V34.3432H37.3284V34.3095H37.2948V34.2758H37.2611V34.2422H37.2275V34.2085H37.1602V34.1749H37.1265V34.1412H37.0929V34.1076H37.0592V34.0739H37.0256V34.0403H36.9919V34.0066H36.9583V33.973H36.891V33.9393H36.8573V33.9057H36.8237V33.872H36.79V33.8384H36.7564V33.8047H36.7227V33.7711H36.6554V33.7374H36.6217V33.7038H36.5881V33.6701H36.5544V33.6365H36.5208V33.6028H36.4871V33.5691H36.4535V33.5355H36.3862V33.5018H36.3525V33.4682H36.3189V33.4345H36.2852V33.4009H36.2516V33.3672H36.2179V33.3336H36.1506V33.2999H36.117V33.2663H36.0833V33.2326H36.0496V33.199H36.016V33.1653H35.9823V33.1317H35.915V33.098H35.8814V33.0644H35.8477V33.0307H35.8141V32.9971H35.7804V32.9634H35.7468V32.9297H35.7131V32.8961H35.6458V32.8624H35.6122V32.8288H35.5785V32.7951H35.5449V32.7615H35.5112V32.7278H35.4776V32.6942H35.4103V32.6605H35.3766V32.6269H35.3429V32.5932H35.3093V32.5596H35.2756V32.5259H35.242V32.4923H35.2083V32.4586H35.141V32.425H35.1074V32.3913H35.0737V32.3577H35.0401V32.324H35.0064V32.2903H34.9728V32.2567H34.9055V32.223H34.8718V32.1894H34.8382V32.1557H34.8045V32.1221H34.7709V32.0884H34.7372V32.0548H34.6699V32.0211H34.6362V31.9875H34.6026V31.9538H34.5689V31.9202H34.5353V31.8865H34.5016V31.8529H34.468V31.8192H34.4007V31.7856H34.367V31.7519H34.3334V31.7183H34.2997V31.6846H34.2661V31.6509H34.2324V31.6173H34.1651V31.5836H34.1315V31.55H34.0978V31.5163H34.0641V31.4827H34.0305V31.449H33.9968V31.4154H33.9632V31.3817H33.8959V31.3481H33.8622V31.3144H33.8286V31.2808H33.7949V31.2471H33.7613V31.2135H33.7276V31.1798H33.6603V31.1462H33.6267V31.1125H33.593V31.0789H33.5594V31.0452H33.5257V31.0116H33.4921V30.9779H33.4584V30.9442H33.3911V30.9106H33.3574V30.8769H33.3238V30.8433H33.2901V30.8096H33.2565V30.776H33.2228V30.7423H33.1555V30.7087H33.1219V30.675H33.0882V30.6414H33.0546V30.6077H33.0209V30.5741H32.9873V30.5404H32.92V30.5068H32.8863V30.4731H32.8527V30.4395H32.819V30.4058H32.7854V30.3722H32.7517V30.3385H32.718V30.3048H32.6507V30.2712H32.6171V30.2375H32.5834V30.2039H32.5498V30.1702H32.5161V30.1366H32.4825V30.1029H32.4152V30.0693H32.3815V30.0356H32.3479V30.002H32.3142V29.9683H32.2806V29.9347H32.2469V29.901H32.2133V29.8674H32.146V29.8337H32.1123V29.8001H32.0786V29.7664H32.045V29.7328H32.0113V29.6991H31.9777V29.6655H31.9104V29.6318H31.8767V29.5981H31.8431V29.5645H31.8094V29.5308H31.7758V29.4972H31.7421V29.4635H31.6748V29.4299H31.6412V29.3962H31.6075V29.3626H31.5739V29.3289H31.5402V29.2953H31.5066V29.2616H31.4729V29.228H31.4056V29.1943H31.3719V29.1607H31.3383V29.127H31.3046V29.0934H31.271V29.0597H31.2373V29.0261H31.17V28.9924H31.1364V28.9587H31.1027V28.9251H31.0691V28.8914H31.0354V28.8578H31.0018V28.8241H30.9681V28.7905H30.9008V28.7568H30.8672V28.7232H30.8335V28.6895H30.7999V28.6559H30.7662V28.6222H30.7325V28.5886H30.6652V28.5549H30.6316V28.5213H30.5979V28.4876H30.5643V28.454H30.5306V28.4203H30.497V28.3867H30.4297V28.353H30.396V28.3194H30.3624V28.2857H30.3287V28.252H30.2951V28.2184H30.2614V28.1847H30.2278V28.1511H30.1605V28.1174H30.1268V28.0838H30.0931V28.0501H30.0595V28.0165H30.0258V27.9828H29.9922V27.9492H29.9249V27.9155H29.8912V27.8819H29.8576V27.8482H29.8239V27.8146H29.7903V27.7809H29.7566V27.7473H29.723V27.7136H29.6557V27.6799H29.622V27.6463H29.5884V27.6126H29.5547V27.579H29.5211V27.5453H29.4874V27.5117H29.4201V27.478H29.3864V27.4444H29.3528V27.4107H29.3191V27.3771H29.2855V27.3434H29.2518V27.3098H29.2182V27.2761H29.1509V27.2425H29.1172V27.2088H29.0836V27.1752H29.0499V27.1415H29.0163V27.1079H28.9826V27.0742H28.9153V27.0406H28.8817V27.0069H28.848V26.9732H28.8144V26.9396H28.7807V26.9059H28.747V26.8723H28.6797V26.8386H28.6461V26.805H28.6124V26.7713H28.5788V26.7377H28.5451V26.704H28.5115V26.6704H28.4778V26.6367H28.4105V26.6031H28.3769V26.5694H28.3432V26.5358H28.3096V26.5021H28.2759V26.4685H28.2423V26.4348H28.175V26.4012H28.1413V26.3675H28.1076V26.3338H28.074V26.3002H28.0403V26.2665H28.0067V26.2329H27.973V26.1992H27.9057V26.1656H27.8721V26.1319H27.8384V26.0983H27.8048V26.0646H27.7711V26.031H27.7375V25.9973H27.6702V25.9637H27.6365V25.93H27.6029V25.8964H27.5692V25.8627H27.5356V25.8291H27.5019V25.7954H27.4346V25.7618H27.4009V25.7281H27.3673V25.6945H27.3336V25.6608H27.3V25.6271H27.2663V25.5935H27.2327V25.5598H27.1654V25.5262H27.1317V25.4925H27.0981V25.4589H27.0644V25.4252H27.0308V25.3916H26.9971V25.3579H26.9298V25.3243H26.8962V25.2906H26.8625V25.257H26.8289V25.2233H26.7952V25.1897H26.7615V25.156H26.7279V25.1224H26.6606V25.0887H26.6269V25.0551H26.5933V25.0214H26.5596V24.9877H26.526V24.9541H26.4923V24.9204H26.425V24.8868H26.3914V24.8531H26.3577V24.8195H26.3241V24.7858H26.2904V24.7522H26.2568V24.7185H26.2231V24.6849H26.1558V24.6512H26.1221V24.6176H26.0885V24.5839H26.0548V24.5503H26.0212V24.5166H25.9875V24.483H25.9202V24.4493H25.8866V24.4156H25.8529V24.382H25.8193V24.3484H25.7856V24.3147H25.752V24.281H25.6847V24.2474H25.651V24.2137H25.6174V24.1801H25.5837V24.1464H25.5501V24.1128H25.5164V24.0791H25.4827V24.0455H25.4154V24.0118H25.3818V23.9782H25.3481V23.9445H25.3145V23.9109H25.2808V23.8772H25.2472V23.8436H25.1799V23.8099H25.1462V23.7763H25.1126V23.7426H25.0789V23.7089H25.0453V23.6753H25.0116V23.6416H24.978V23.608H24.9107V23.5743H24.877V23.5407H24.8434V23.507H24.8097V23.4734H24.776V23.4397H24.7424V23.4061H24.6751V23.3724H24.6414V23.3388H24.6078V23.3051H24.5741V23.2715H24.5405V23.2378H24.5068V23.2042H24.4395V23.1705H24.4059V23.1369H24.3722V23.1032H24.3386V23.0695H24.3049V23.0359H24.2713V23.0022H24.2376V22.9686H24.1703V22.9349H24.1366V22.9013H24.103V22.8676H24.0693V22.834H24.0357V22.8003H24.002V22.7667H23.9347V22.733H23.9011V22.6994H23.8674V22.6657H23.8338V22.6321H23.8001V22.5984H23.7665V22.5648H23.7328V22.5311H23.6655V22.4975H23.6319V22.4638H23.5982V22.4302H23.5646V22.3965H23.5309V22.3628H23.4972V22.3292H23.4299V22.2955H23.3963V22.2619H23.3626V22.2282H23.329V22.1946H23.2953V22.1609H23.2617V22.1273H23.1944V22.0936H23.1607V22.06H23.1271V22.0263H23.0934V21.9927H23.0598V21.959H23.0261V21.9254H22.9925V21.8917H22.9252V21.8581H22.8915V21.8244H22.8579V21.7908H22.8242V21.7571H22.7905V21.7234H22.7569V21.6898H22.6896V21.6561H22.6559V21.6225H22.6223V21.5888H22.5886V21.5552H22.555V21.5215H22.5213V21.4879H22.4877V21.4542H22.4204V21.4206H22.3867V21.3869H22.3531V21.3533H22.3194V21.3196H22.2858V21.286H22.2521V21.2523H22.1848V21.2187H22.1511V21.185H22.1175V21.1514H22.0838V21.1177H22.0502V21.0841H22.0165V21.0504H21.9829V21.0167H21.9156V20.9831H21.8819V20.9494H21.8483V20.9158H21.8146V20.8821H21.781V20.8485H21.7473V20.8148H21.68V20.7812H21.6464V20.7475H21.6127V20.7139H21.5791V20.6802H21.5454V20.6466H21.5117V20.6129H21.4444V20.5793H21.4108V20.5456H21.3771V20.512H21.3435V20.4783H21.3098V20.4446H21.2762V20.411H21.2425V20.3773H21.1752V20.3437H21.1416V20.31H21.1079V20.2764H21.0743V20.2427H21.0406V20.2091H21.007V20.1754H20.9397V20.1418H20.906V20.1081H20.8724V20.0745H20.8387V20.0408H20.805V20.0072H20.7714V19.9735H20.7377V19.9399H20.6704V19.9062H20.6368V19.8726H20.6031V19.8389H20.5695V19.8053H20.5358V19.7716H20.5022V19.7379H20.4349V19.7043H20.4012V19.6706H20.3676V19.637H20.3339V19.6033H20.3003V19.5697H20.2666V19.536H20.1993V19.5024H20.1656V19.4687H20.132V19.4351H20.0983V19.4014H20.0647V19.3678H20.031V19.3341H19.9974V19.3005H19.9301V19.2668H19.8964V19.2332H19.8628V19.1995H19.8291V19.1659H19.7955V19.1322H19.7618V19.0985H19.6945V19.0649H19.6609V19.0312H19.6272V18.9976H19.5936V18.9639H19.5599V18.9303H19.5262V18.8966H19.4926V18.863H19.4253V18.8293H19.3916V18.7957H19.358V18.762H19.3243V18.7284H19.2907V18.6947H19.257V18.6611H19.1897V18.6274H19.1561V18.5938H19.1224V18.5601H19.0888V18.5265H19.0551V18.4928H19.0215V18.4592H18.9542V18.4255H18.9205V18.3918H18.8869V18.3582H18.8532V18.3245H18.8195V18.2909H18.7859V18.2572H18.7522V18.2236H18.6849V18.1899H18.6513V18.1563H18.6176V18.1226H18.584V18.089H18.5503V18.0553H18.5167V18.0217H18.4494V17.988H18.4157V17.9544H18.3821V17.9207H18.3484V17.8871H18.3148V17.8534H18.2811V17.8198H18.2475V17.7861H18.1801V17.7524H18.1465V17.7188H18.1128V17.6851H18.0792V17.6515H18.0455V17.6178H18.0119V17.5842H17.9446V17.5505H17.9109V17.5169H17.8773V17.4832H17.8436V17.4496H17.81V17.4159H17.7763V17.3823H17.7427V17.3486H17.6754V17.315H17.6417V17.2813H17.6081V17.2477H17.5744V17.214H17.5407V17.1804H17.5071V17.1467H17.4398V17.1131H17.4061V17.0794H17.3725V17.0457H17.3388V17.0121H17.3052V16.9784H17.2715V16.9448H17.2042V16.9111H17.1706V16.8775H17.1369V16.8438H17.1033V16.8102H17.0696V16.7765H17.036V16.7429H17.0023V16.7092H16.935V16.6756H16.9014V16.6419H16.8677V16.6083H16.834V16.5746H16.8004V16.541H16.7667V16.5073H16.6994V16.4736H16.6658V16.44H16.6321V16.4063H16.5985V16.3727H16.5648V16.339H16.5312V16.3054H16.4975V16.2717H16.4302V16.2381H16.3966V16.2044H16.3629V16.1708H16.3293V16.1371H16.2956V16.1035H16.262V16.0698H16.1946V16.0362H16.161V16.0025H16.1273V15.9689H16.0937V15.9352H16.06V15.9016H16.0264V15.8679H15.9591V15.8343H15.9254V15.8006H15.8918V15.7669H15.8581V15.7333H15.8245V15.6996H15.7908V15.666H15.7572V15.6323H15.6899V15.5987H15.6562V15.565H15.6226V15.5314H15.5889V15.4977H15.5552V15.4641H15.5216V15.4304H15.4543V15.3968H15.4206V15.3631H15.387V15.3295H15.3533V15.2958H15.3197V15.2622H15.286V15.2285H15.2524V15.1949H15.1851V15.1612H15.1514V15.1275H15.1178V15.0939H15.0841V15.0602H15.0505V15.0266H15.0168V14.9929H14.9495V14.9593H14.9159V14.9256H14.8822V14.892H14.8485V14.8583H14.8149V14.8247H14.7812V14.791H14.7476V14.7574H14.6803V14.7237H14.6466V14.6901H14.613V14.6564H14.5793V14.6228H14.5457V14.5891H14.512V14.5555H14.4447V14.5218H14.4111V14.4882H14.3774V14.4545H14.3438V14.4208H14.3101V14.3872H14.2765V14.3535H14.2091V14.3199H14.1755V14.2862H14.1418V14.2526H14.1082V14.2189H14.0745V14.1853H14.0409V14.1516H14.0072V14.118H13.9399V14.0843H13.9063V14.0507H13.8726V14.017H13.839V13.9834H13.8053V13.9497H13.7717V13.9161H13.7044V13.8824H13.6707V13.8488H13.6371V13.8151H13.6034V13.7814H13.5697V13.7478H13.5361V13.7141H13.5024V13.6805H13.4351V13.6468H13.4015V13.6132H13.3678V13.5795H13.3342V13.5459H13.3005V13.5122H13.2669V13.4786H13.1996V13.4449H13.1659V13.4113H13.1323V13.3776H13.0986V13.344H13.065V13.3103H13.0313V13.2767H12.964V13.243H12.9304V13.2094H12.8967V13.1757H12.863V13.1421H12.8294V13.1084H12.7957V13.0747H12.7621V13.0411H12.6948V13.0074H12.6611V12.9738H12.6275V12.9401H12.5938V12.9065H12.5602V12.8728H12.5265V12.8392H12.4592V12.8055H12.4256V12.7719H12.3919V12.7382H12.3583V12.7046H12.3246V12.6709H12.291V12.6373H12.2573V12.6036H12.19V12.57H12.1563V12.5363H12.1227V12.5026H12.089V12.469H12.0554V12.4353H12.0217V12.4017H11.9544V12.368H11.9208V12.3344H11.8871V12.3007H11.8535V12.2671H11.8198V12.2334H11.7862V12.1998H11.7189V12.1661H11.6852V12.1325H11.6516V12.0988H11.6179V12.0652H11.5842V12.0315H11.5506V11.9979H11.5169V11.9642H11.4496V11.9306H11.416V11.8969H11.3823V11.8633H11.3487V11.8296H11.315V11.7959H11.2814V11.7623H11.2141V11.7286H11.1804V11.695H11.1468V11.6613H11.1131V11.6277H11.0795V11.594H11.0458V11.5604H11.0122V11.5267H10.9449V11.4931H10.9112V11.4594H10.8775V11.4258H10.8439V11.3921H10.8102V11.3585H10.7766V11.3248H10.7093V11.2912H10.6756V11.2575H10.642V11.2239H10.6083V11.1902H10.5747V11.1565H10.541V11.1229H10.5074V11.0892H10.4401V11.0556H10.4064V11.0219H10.3728V10.9883H10.3391V10.9546H10.3055V10.921H10.2718V10.8873H10.2045V10.8537H10.1708V10.82H10.1372V10.7864H10.1035V10.7527H10.0699V10.7191H10.0362V10.6854H9.96893V10.6518H9.93527V10.6181H9.90162V10.5845H9.86797V10.5508H9.83432V10.5172H9.80066V10.4835H9.76701V10.4498H9.69971V10.4162H9.66605V10.3825H9.6324V10.3489H9.59875V10.3152H9.5651V10.2816H9.53144V10.2479H9.46414V10.2143H9.43049V10.1806H9.39683V10.147H9.36318V10.1133H9.32953V10.0797H9.29588V10.046H9.26222V10.0124H9.19492V9.97871H9.16127V9.94506H9.12761V9.91141H9.09396V9.87775H9.06031V9.8441H9.02666V9.81045H8.95935V9.77679H8.9257V9.74314H8.89205V9.70949H8.85839V9.67583H8.82474V9.64218H8.79109V9.60853H8.72378V9.57488H8.69013V9.54123H8.65648V9.50758H8.62282V9.47392H8.58917V9.44027H8.55552V9.40662H8.52187V9.37296H8.45456V9.33931H8.42091V9.30566H8.38726V9.272H8.3536V9.23835H8.31995V9.2047H8.2863V9.17105H8.21899V9.1374H8.18534V9.10374H8.15169V9.07009H8.11804V9.03644H8.08438V9.00278H8.05073V8.96913H8.01708V8.93548H7.94977V8.90182H7.91612V8.86818H7.88247V8.83453H7.84882V8.80087H7.81516V8.76722H7.78151V8.73357H7.71421V8.69991H7.68055V8.66626H7.6469V8.63261H7.61325V8.59895H7.5796V8.5653H7.54594V8.53165H7.51229V8.498H7.44499V8.46435H7.41133V8.43069H7.37768V8.39704H7.34403V8.36339H7.31038V8.32973H7.27672V8.29608H7.20942V8.26243H7.17577V8.22878H7.14211V8.19512H7.10846V8.16147H7.07481V8.12782H7.04116V8.09417H6.97385V8.06052H6.9402V8.02686H6.90655V7.99321H6.87289V7.95956H6.83924V7.9259H6.80559V7.89225H6.77193V7.8586H6.70463V7.82494H6.67098V7.7913H6.63732V7.75764H6.60367V7.72399H6.57002V7.69034H6.53637V7.65668H6.46906V7.62303H6.43541V7.58938H6.40176V7.55573H6.3681V7.52207H6.33445V7.48842H6.3008V7.45477H6.26715V7.42112H6.19984V7.38747H6.16619V7.35381H6.13254V7.32016H6.09888V7.28651H6.06523V7.25285H6.03158V7.2192H5.96427V7.18555H5.93062V7.15189H5.89697V7.11824H5.86332V7.08459H5.82966V7.05094H5.79601V7.01729H5.72871V6.98363H5.69505V6.94998H5.6614V6.91633H5.62775V6.88268H5.5941V6.84902H5.56044V6.81537H5.52679V6.78172H5.45949V6.74806H5.42583V6.71441H5.39218V6.68076H5.35853V6.64711H5.32488V6.61346H5.29122V6.5798H5.22392V6.54615H5.19027V6.5125H5.15661V6.47884H5.12296V6.44519H5.08931V6.41154H5.05566V6.37788H5.022V6.34424H4.9547V6.31059H4.92105V6.27693H4.88739V6.24328H4.85374V6.20963H4.82009V6.17597H4.78644V6.14232H4.71913V6.10867H4.68548V6.07501H4.65182V6.04136H4.61817V6.00771H4.58452V5.97406H4.55087V5.94041H4.48356V5.90675H4.44991V5.8731H4.41626V5.83945H4.3826V5.80579H4.34895V5.77214H4.3153V5.73849H4.28165V5.70483H4.21434V5.67118H4.18069V5.63753H4.14704V5.60388H4.11338V5.57023H4.07973V5.53658H4.04608V5.50292H3.97877V5.46927H3.94512V5.43562H3.91147V5.40196H3.87782V5.36831H3.84416V5.33466H3.81051V5.301H3.77686V5.26736H3.70955V5.2337H3.6759V5.20005H3.64225V5.1664H3.6086V5.13274H3.57494V5.09909H3.54129V5.06544H3.47399V5.03178H3.44033V4.99813H3.40668V4.96448H3.37303V4.93082H3.33938V4.89718H3.30572V4.86353H3.27207V4.82987H3.20477V4.79622H3.17111V4.76257H3.13746V4.72891H3.10381V4.69526H3.07016V4.66161H3.0365V4.62795H2.9692V4.5943H2.93554V4.56065H2.90189V4.527H2.86824V4.49335H2.83459V4.45969H2.80093V4.42604H2.73363V4.39239H2.69998V4.35873H2.66632V4.32508H2.63267V4.29143H2.59902V4.25777H2.56537V4.22412H2.53171V4.19047H2.46441V4.15682H2.43076V4.12317H2.3971V4.08952H2.36345V4.05586H2.3298V4.02221H2.29615V3.98856H2.22884V3.9549H2.19519V3.92125H2.16154V3.8876H2.12788V3.85394H2.09423V3.8203H2.06058V3.78664H2.02693V3.75299H1.95962V3.71934H1.92597V3.68568H1.89232V3.65203H1.85866V3.61838H1.82501V3.58472H1.79136V3.55107H1.72405V3.51742H1.6904V3.48376H1.65675V3.45012H1.6231V3.41647H1.58944V3.38281H1.55579V3.34916H1.48849V3.31551H1.45483V3.28185H1.42118V3.2482H1.38753V3.21455H1.35388V3.18089H1.32022V3.14724H1.28657V3.11359H1.21927V3.07994H1.18561V3.04629H1.15196V3.01263H1.11831V2.97898H1.08466V2.94533H1.051V2.91167H0.983697V2.87802H0.950045V2.84437H0.916392V2.81071H0.88274V2.77706H0.849087V2.74341H0.815435V2.70976H0.781782V2.67611H0.714477V2.64246H0.680825V2.6088H0.647172V2.57515H0.613519V2.5415H0.579867V2.50784H0.546214V2.47419H0.478909V2.44054H0.445257V2.40688H0.411604V2.37324H0.377952V2.33958H0.344299V2.30593H0.310647V2.27228H0.243341V2.23862H0.209689V2.20497H0.176036V2.17132H0.142384V2.13766H0.108731V2.10401H0.0750787V2.07036H0.0414262V2.03671H-0.0258789V1.96941H154.035V2.00306H156.593V2.03671H157.939V2.07036H159.016V2.10401H159.992V2.13766H160.833V2.17132H161.607V2.20497H162.381V2.23862H163.021V2.27228H163.66V2.30593H164.299V2.33958H164.872V2.37324H165.41V2.40688H165.948V2.44054H166.487V2.47419H166.992V2.50784H167.463V2.5415H167.934V2.57515H168.405V2.6088H168.876V2.64246H169.314V2.67611H169.718V2.70976H170.155V2.74341H170.593V2.77706H170.996V2.81071H171.4V2.84437H171.77V2.87802H172.141V2.91167H172.544V2.94533H172.915V2.97898H173.285V3.01263H173.655V3.04629H173.991V3.07994H174.328V3.11359H174.698V3.14724H175.035V3.18089H175.371V3.21455H175.708V3.2482H176.044V3.28185H176.347V3.31551H176.65V3.34916H176.986V3.38281H177.289V3.41647H177.626V3.45012H177.929V3.48376H178.232V3.51742H178.535V3.55107H178.804V3.58472H179.107V3.61838H179.409V3.65203H179.679V3.68568H179.982V3.71934H180.251V3.75299H180.554V3.78664H180.823V3.8203H181.092V3.85394H181.361V3.8876H181.631V3.92125H181.9V3.9549H182.169V3.98856H182.438V4.02221H182.707V4.05586H182.977V4.08952H183.212V4.12317H183.448V4.15682H183.717V4.19047H183.953V4.22412H184.188V4.25777H184.457V4.29143H184.693V4.32508H184.962V4.35873H185.198V4.39239H185.433V4.42604H185.669V4.45969H185.904V4.49335H186.14V4.527H186.376V4.56065H186.611V4.5943H186.813V4.62795H187.049V4.66161H187.284V4.69526H187.52V4.72891H187.755V4.76257H187.991V4.79622H188.193V4.82987H188.395V4.86353H188.63V4.89718H188.832V4.93082H189.068V4.96448H189.27V4.99813H189.472V5.03178H189.707V5.06544H189.909V5.09909H190.145V5.13274H190.347V5.1664H190.548V5.20005H190.75V5.2337H190.952V5.26736H191.154V5.301H191.356V5.33466H191.558V5.36831H191.76V5.40196H191.962V5.43562H192.164V5.46927H192.366V5.50292H192.568V5.53658H192.77V5.57023H192.971V5.60388H193.14V5.63753H193.342V5.67118H193.544V5.70483H193.712V5.73849H193.914V5.77214H194.082V5.80579H194.284V5.83945H194.452V5.8731H194.654V5.90675H194.856V5.94041H195.024V5.97406H195.226V6.00771H195.394V6.04136H195.596V6.07501H195.765V6.10867H195.933V6.14232H196.101V6.17597H196.303V6.20963H196.471V6.24328H196.64V6.27693H196.808V6.31059H197.01V6.34424H197.178V6.37788H197.346V6.41154H197.515V6.44519H197.683V6.47884H197.885V6.5125H198.053V6.54615H198.221V6.5798H198.39V6.61346H198.558V6.64711H198.726V6.68076H198.894V6.71441H199.029V6.74806H199.197V6.78172H199.365V6.81537H199.534V6.84902H199.702V6.88268H199.87V6.91633H200.038V6.94998H200.207V6.98363H200.375V7.01729H200.51V7.05094H200.678V7.08459H200.846V7.11824H201.014V7.15189H201.149V7.18555H201.317V7.2192H201.452V7.25285H201.62V7.28651H201.755V7.32016H201.923V7.35381H202.091V7.38747H202.226V7.42112H202.394V7.45477H202.529V7.48842H202.697V7.52207H202.865V7.55573H203V7.58938H203.168V7.62303H203.303V7.65668H203.471V7.69034H203.606V7.72399H203.74V7.75764H203.875V7.7913H204.043V7.82494H204.178V7.8586H204.312V7.89225H204.481V7.9259H204.615V7.95956H204.75V7.99321H204.918V8.02686H205.053V8.06052H205.187V8.09417H205.356V8.12782H205.49V8.16147H205.625V8.19512H205.759V8.22878H205.928V8.26243H206.062V8.29608H206.197V8.32973H206.332V8.36339H206.466V8.39704H206.601V8.43069H206.735V8.46435H206.87V8.498H207.005V8.53165H207.139V8.5653H207.274V8.59895H207.408V8.63261H207.543V8.66626H207.678V8.69991H207.812V8.73357H207.947V8.76722H208.081V8.80087H208.216V8.83453H208.351V8.86818H208.485V8.90182H208.62V8.93548H208.755V8.96913H208.855V9.00278H208.99V9.03644H209.125V9.07009H209.259V9.10374H209.394V9.1374H209.495V9.17105H209.629V9.2047H209.764V9.23835H209.899V9.272H210.033V9.30566H210.134V9.33931H210.269V9.37296H210.403V9.40662H210.538V9.44027H210.673V9.47392H210.774V9.50758H210.908V9.54123H211.043V9.57488H211.144V9.60853H211.278V9.64218H211.379V9.67583H211.514V9.70949H211.615V9.74314H211.75V9.77679H211.884V9.81045H211.985V9.8441H212.12V9.87775H212.221V9.91141H212.355V9.94506H212.456V9.97871H212.591V10.0124H212.726V10.046H212.826V10.0797H212.961V10.1133H213.062V10.147H213.197V10.1806H213.298V10.2143H213.432V10.2479H213.533V10.2816H213.634V10.3152H213.769V10.3489H213.87V10.3825H213.971V10.4162H214.105V10.4498H214.206V10.4835H214.341V10.5172H214.442V10.5508H214.543V10.5845H214.677V10.6181H214.778V10.6518H214.879V10.6854H215.014V10.7191H215.115V10.7527H215.216V10.7864H215.35V10.82H215.451V10.8537H215.552V10.8873H215.687V10.921H215.788V10.9546H215.889V10.9883H215.99V11.0219H216.091V11.0556H216.225V11.0892H216.326V11.1229H216.427V11.1565H216.528V11.1902H216.629V11.2239H216.73V11.2575H216.831V11.2912H216.966V11.3248H217.067V11.3585H217.168V11.3921H217.269V11.4258H217.37V11.4594H217.471V11.4931H217.571V11.5267H217.706V11.5604H217.807V11.594H217.908V11.6277H218.009V11.6613H218.11V11.695H218.211V11.7286H218.312V11.7623H218.413V11.7959H218.514V11.8296H218.615V11.8633H218.716V11.8969H218.817V11.9306H218.918V11.9642H219.019V11.9979H219.119V12.0315H219.22V12.0652H219.321V12.0988H219.422V12.1325H219.523V12.1661H219.624V12.1998H219.692V12.2334H219.793V12.2671H219.893V12.3007H219.994V12.3344H220.095V12.368H220.196V12.4017H220.297V12.4353H220.398V12.469H220.499V12.5026H220.6V12.5363H220.701V12.57H220.802V12.6036H220.869V12.6373H220.97V12.6709H221.071V12.7046H221.172V12.7382H221.24V12.7719H221.341V12.8055H221.442V12.8392H221.542V12.8728H221.61V12.9065H221.711V12.9401H221.812V12.9738H221.913V13.0074H221.98V13.0411H222.081V13.0747H222.182V13.1084H222.283V13.1421H222.35V13.1757H222.451V13.2094H222.552V13.243H222.653V13.2767H222.754V13.3103H222.821V13.344H222.922V13.3776H223.023V13.4113H223.09V13.4449H223.191V13.4786H223.259V13.5122H223.36V13.5459H223.461V13.5795H223.528V13.6132H223.629V13.6468H223.696V13.6805H223.797V13.7141H223.898V13.7478H223.965V13.7814H224.066V13.8151H224.134V13.8488H224.235V13.8824H224.302V13.9161H224.403V13.9497H224.504V13.9834H224.571V14.017H224.672V14.0507H224.739V14.0843H224.84V14.118H224.941V14.1516H225.009V14.1853H225.11V14.2189H225.177V14.2526H225.278V14.2862H225.345V14.3199H225.446V14.3535H225.513V14.3872H225.614V14.4208H225.682V14.4545H225.749V14.4882H225.85V14.5218H225.917V14.5555H226.018V14.5891H226.086V14.6228H226.153V14.6564H226.254V14.6901H226.321V14.7237H226.422V14.7574H226.489V14.791H226.59V14.8247H226.658V14.8583H226.725V14.892H226.826V14.9256H226.893V14.9593H226.994V14.9929H227.061V15.0266H227.129V15.0602H227.23V15.0939H227.297V15.1275H227.398V15.1612H227.465V15.1949H227.533V15.2285H227.634V15.2622H227.701V15.2958H227.768V15.3295H227.835V15.3631H227.936V15.3968H228.004V15.4304H228.071V15.4641H228.172V15.4977H228.239V15.5314H228.307V15.565H228.374V15.5987H228.475V15.6323H228.542V15.666H228.61V15.6996H228.677V15.7333H228.778V15.7669H228.845V15.8006H228.912V15.8343H228.98V15.8679H229.081V15.9016H229.148V15.9352H229.215V15.9689H229.283V16.0025H229.384V16.0362H229.451V16.0698H229.518V16.1035H229.585V16.1371H229.686V16.1708H229.754V16.2044H229.821V16.2381H229.888V16.2717H229.956V16.3054H230.023V16.339H230.09V16.3727H230.158V16.4063H230.258V16.44H230.326V16.4736H230.393V16.5073H230.46V16.541H230.528V16.5746H230.595V16.6083H230.662V16.6419H230.73V16.6756H230.797V16.7092H230.898V16.7429H230.965V16.7765H231.032V16.8102H231.1V16.8438H231.167V16.8775H231.234V16.9111H231.302V16.9448H231.369V16.9784H231.436V17.0121H231.504V17.0457H231.605V17.0794H231.672V17.1131H231.739V17.1467H231.807V17.1804H231.874V17.214H231.941V17.2477H232.008V17.2813H232.076V17.315H232.143V17.3486H232.21V17.3823H232.278V17.4159H232.345V17.4496H232.412V17.4832H232.48V17.5169H232.513V17.5505H232.581V17.5842H232.648V17.6178H232.715V17.6515H232.782V17.6851H232.85V17.7188H232.917V17.7524H232.984V17.7861H233.052V17.8198H233.119V17.8534H233.186V17.8871H233.254V17.9207H233.321V17.9544H233.388V17.988H233.455V18.0217H233.523V18.0553H233.59V18.089H233.657V18.1226H233.725V18.1563H233.792V18.1899H233.859V18.2236H233.927V18.2572H233.96V18.2909H234.028V18.3245H234.095V18.3582H234.162V18.3918H234.229V18.4255H234.297V18.4592H234.33V18.4928H234.398V18.5265H234.465V18.5601H234.532V18.5938H234.6V18.6274H234.633V18.6611H234.701V18.6947H234.768V18.7284H234.835V18.762H234.903V18.7957H234.97V18.8293H235.003V18.863H235.071V18.8966H235.138V18.9303H235.205V18.9639H235.273V18.9976H235.306V19.0312H235.374V19.0649H235.441V19.0985H235.508V19.1322H235.576V19.1659H235.643V19.1995H235.677V19.2332H235.744V19.2668H235.811V19.3005H235.878V19.3341H235.946V19.3678H235.979V19.4014H236.047V19.4351H236.114V19.4687H236.148V19.5024H236.215V19.536H236.282V19.5697H236.316V19.6033H236.383V19.637H236.451V19.6706H236.484V19.7043H236.551V19.7379H236.619V19.7716H236.652V19.8053H236.72V19.8389H236.787V19.8726H236.854V19.9062H236.888V19.9399H236.955V19.9735H237.023V20.0072H237.056V20.0408H237.124V20.0745H237.191V20.1081H237.225V20.1418H237.292V20.1754H237.359V20.2091H237.393V20.2427H237.46V20.2764H237.527V20.31H237.561V20.3437H237.628V20.3773H237.696V20.411H237.729V20.4446H237.797V20.4783H237.864V20.512H237.898V20.5456H237.965V20.5793H237.999V20.6129H238.066V20.6466H238.133V20.6802H238.167V20.7139H238.234V20.7475H238.268V20.7812H238.335V20.8148H238.369V20.8485H238.436V20.8821H238.47V20.9158H238.537V20.9494H238.604V20.9831H238.638V21.0167H238.705V21.0504H238.739V21.0841H238.806V21.1177H238.84V21.1514H238.907V21.185H238.941V21.2187H239.008V21.2523H239.075V21.286H239.109V21.3196H239.176V21.3533H239.21V21.3869H239.277V21.4206H239.311V21.4542H239.378V21.4879H239.412V21.5215H239.479V21.5552H239.547V21.5888H239.58V21.6225H239.648V21.6561H239.681V21.6898H239.749V21.7234H239.782V21.7571H239.849V21.7908H239.883V21.8244H239.917V21.8581H239.984V21.8917H240.018V21.9254H240.085V21.959H240.119V21.9927H240.186V22.0263H240.22V22.06H240.253V22.0936H240.321V22.1273H240.354V22.1609H240.422V22.1946H240.455V22.2282H240.523V22.2619H240.556V22.2955H240.59V22.3292H240.657V22.3628H240.691V22.3965H240.758V22.4302H240.792V22.4638H240.859V22.4975H240.893V22.5311H240.926V22.5648H240.994V22.5984H241.027V22.6321H241.095V22.6657H241.128V22.6994H241.196V22.733H241.229V22.7667H241.263V22.8003H241.33V22.834H241.364V22.8676H241.431V22.9013H241.465V22.9349H241.498V22.9686H241.566V23.0022H241.599V23.0359H241.633V23.0695H241.7V23.1032H241.734V23.1369H241.768V23.1705H241.835V23.2042H241.869V23.2378H241.902V23.2715H241.97V23.3051H242.003V23.3388H242.037V23.3724H242.071V23.4061H242.138V23.4397H242.171V23.4734H242.205V23.507H242.272V23.5407H242.306V23.5743H242.34V23.608H242.407V23.6416H242.441V23.6753H242.474V23.7089H242.542V23.7426H242.575V23.7763H242.609V23.8099H242.643V23.8436H242.71V23.8772H242.744V23.9109H242.777V23.9445H242.845V23.9782H242.878V24.0118H242.912V24.0455H242.979V24.0791H243.013V24.1128H243.046V24.1464H243.114V24.1801H243.147V24.2137H243.181V24.2474H243.215V24.281H243.248V24.3147H243.316V24.3484H243.349V24.382H243.383V24.4156H243.417V24.4493H243.45V24.483H243.518V24.5166H243.551V24.5503H243.585V24.5839H243.619V24.6176H243.652V24.6512H243.719V24.6849H243.753V24.7185H243.787V24.7522H243.82V24.7858H243.854V24.8195H243.921V24.8531H243.955V24.8868H243.989V24.9204H244.022V24.9541H244.056V24.9877H244.123V25.0214H244.157V25.0551H244.191V25.0887H244.224V25.1224H244.258V25.156H244.325V25.1897H244.359V25.2233H244.393V25.257H244.426V25.2906H244.46V25.3243H244.527V25.3579H244.561V25.3916H244.594V25.4252H244.628V25.4589H244.662V25.4925H244.695V25.5262H244.763V25.5598H244.796V25.5935H244.83V25.6271H244.864V25.6608H244.897V25.6945H244.931V25.7281H244.965V25.7618H244.998V25.7954H245.032V25.8291H245.066V25.8627H245.099V25.8964H245.167V25.93H245.2V25.9637H245.234V25.9973H245.268V26.031H245.301V26.0646H245.335V26.0983H245.368V26.1319H245.402V26.1656H245.436V26.1992H245.469V26.2329H245.503V26.2665H245.537V26.3002H245.604V26.3338H245.638V26.3675H245.671V26.4012H245.705V26.4348H245.739V26.4685H245.772V26.5021H245.806V26.5358H245.84V26.5694H245.873V26.6031H245.907V26.6367H245.941V26.6704H245.974V26.704H246.042V26.7377H246.075V26.7713H246.109V26.805H246.142V26.8386H246.176V26.8723H246.21V26.9059H246.243V26.9396H246.277V26.9732H246.311V27.0069H246.344V27.0406H246.378V27.0742H246.412V27.1079H246.445V27.1415H246.479V27.1752H246.513V27.2088H246.546V27.2425H246.58V27.2761H246.614V27.3098H246.647V27.3434H246.681V27.3771H246.715V27.4107H246.748V27.4444H246.782V27.478H246.816V27.5117H246.849V27.5453H246.883V27.579H246.916V27.6126H246.95V27.6799H246.984V27.7136H247.017V27.7473H247.051V27.7809H247.085V27.8146H247.118V27.8482H247.152V27.8819H247.186V27.9155H247.219V27.9492H247.253V27.9828H247.287V28.0165H247.32V28.0501H247.354V28.0838H247.388V28.1174H247.421V28.1511H247.455V28.1847H247.489V28.2184H247.522V28.252H247.556V28.2857H247.59V28.3194H247.623V28.353H247.657V28.3867H247.69V28.4203H247.724V28.454H247.758V28.5213H247.791V28.5549H247.825V28.5886H247.859V28.6222H247.892V28.6559H247.926V28.6895H247.96V28.7568H247.993V28.7905H248.027V28.8241H248.061V28.8578H248.094V28.8914H248.128V28.9251H248.162V28.9587H248.195V29.0261H248.229V29.0597H248.263V29.0934H248.296V29.127H248.33V29.1607H248.364V29.1943H248.397V29.228H248.431V29.2953H248.465V29.3289H248.498V29.3626H248.532V29.3962H248.565V29.4299H248.599V29.4635H248.633V29.5308H248.666V29.5645H248.7V29.5981H248.734V29.6318H248.767V29.6655H248.801V29.6991H248.835V29.7328H248.868V29.8001H248.902V29.8337H248.936V29.8674H248.969V29.901H249.003V29.9683H249.037V30.002H249.07V30.0356H249.104V30.0693H249.138V30.1366H249.171V30.1702H249.205V30.2039H249.239V30.2712H249.272V30.3048H249.306V30.3385H249.339V30.4058H249.373V30.4395H249.407V30.4731H249.44V30.5068H249.474V30.5741H249.508V30.6077H249.541V30.6414H249.575V30.7087H249.609V30.7423H249.642V30.776H249.676V30.8433H249.71V30.8769H249.743V30.9106H249.777V30.9442H249.811V31.0116H249.844V31.0452H249.878V31.0789H249.912V31.1462H249.945V31.1798H249.979V31.2135H250.013V31.2808H250.046V31.3144H250.08V31.3481H250.113V31.4154H250.147V31.449H250.181V31.5163H250.214V31.55H250.248V31.5836H250.282V31.6509H250.315V31.6846H250.349V31.7519H250.383V31.7856H250.416V31.8529H250.45V31.8865H250.484V31.9538H250.517V31.9875H250.551V32.0548H250.585V32.0884H250.618V32.1557H250.652V32.1894H250.686V32.2567H250.719V32.2903H250.753V32.3577H250.787V32.3913H250.82V32.4586H250.854V32.4923H250.887V32.5596H250.921V32.5932H250.955V32.6605H250.988V32.6942H251.022V32.7615H251.056V32.7951H251.089V32.8624H251.123V32.8961H251.157V32.9634H251.19V32.9971H251.224V33.0644H251.258V33.1317H251.291V33.199H251.325V33.2326H251.359V33.2999H251.392V33.3672H251.426V33.4345H251.46V33.4682H251.493V33.5355H251.527V33.6028H251.561V33.6365H251.594V33.7038H251.628V33.7711H251.661V33.8384H251.695V33.872H251.729V33.9393H251.762V34.0066H251.796V34.0739H251.83V34.1076H251.863V34.1749H251.897V34.2422H251.931V34.2758H251.964V34.3432H251.998V34.4105H252.032V34.4778H252.065V34.5114H252.099V34.5787H252.133V34.646H252.166V34.7133H252.2V34.7806H252.234V34.8479H252.267V34.9152H252.301V34.9826H252.335V35.0835H252.368V35.1508H252.402V35.2181H252.436V35.2854H252.469V35.3527H252.503V35.42H252.536V35.4873H252.57V35.5546H252.604V35.622H252.637V35.6893H252.671V35.7566H252.705V35.8239H252.738V35.8912H252.772V35.9585H252.806V36.0258H252.839V36.0931H252.873V36.1604H252.907V36.2277H252.94V36.3287H252.974V36.396H253.008V36.4969H253.041V36.5642H253.075V36.6652H253.109V36.7325H253.142V36.8334H253.176V36.9007H253.21V37.0017H253.243V37.069H253.277V37.17H253.31V37.2373H253.344V37.3382H253.378V37.4055H253.411V37.5065H253.445V37.6075H253.479V37.6748H253.512V37.7757H253.546V37.843H253.58V37.944H253.613V38.0113H253.647V38.1122H253.681V38.2468H253.714V38.3478H253.748V38.4488H253.782V38.5497H253.815V38.6507H253.849V38.7853H253.883V38.8862H253.916V38.9872H253.95V39.0882H253.984V39.1891H254.017V39.3237H254.051V39.4247H254.084V39.5256H254.118V39.6266H254.152V39.7276H254.185V39.8622H254.219V40.0304H254.253V40.165H254.286V40.2997H254.32V40.4679H254.354V40.6025H254.387V40.7708H254.421V40.9054H254.455V41.04H254.488V41.2083H254.522V41.3429H254.556V41.4775H254.589V41.6458H254.623V41.8813H254.657V42.0832H254.69V42.3188H254.724V42.5544H254.758V42.7899H254.791V43.0255H254.825V43.2274H254.858V43.463H254.892V43.8668H254.926V44.3716H254.959V44.8764H254.993V45.3812H255.027V46.6936H254.993V47.8715H254.959V48.2753H254.926V48.6791H254.892V49.083H254.858V49.4868H254.825V49.756H254.791V49.9916H254.758V50.1935H254.724V50.4291H254.69V50.631H254.657V50.8329H254.623V51.0685H254.589V51.2704H254.556V51.4723H254.522V51.7079H254.488V51.8761H254.455V52.0107H254.421V52.179H254.387V52.3136H254.354V52.4482H254.32V52.6165H254.286V52.7511H254.253V52.9194H254.219V53.054H254.185V53.1886H254.152V53.3568H254.118V53.4915H254.084V53.6597H254.051V53.7943H254.017V53.9289H253.984V54.0635H253.95V54.1645H253.916V54.2991H253.883V54.4001H253.849V54.501H253.815V54.6356H253.782V54.7366H253.748V54.8712H253.714V54.9722H253.681V55.0731H253.647V55.2077H253.613V55.3087H253.58V55.4096H253.546V55.5443H253.512V55.6452H253.479V55.7462H253.445V55.8808H253.411V55.9817H253.378V56.1164H253.344V56.2173H253.31V56.3183H253.277V56.4192H253.243V56.4865H253.21V56.5875H253.176V56.6884H253.142V56.7558H253.109V56.8567H253.075V56.9577H253.041V57.0586H253.008V57.1259H252.974V57.2269H252.94V57.3278H252.907V57.4288H252.873V57.4961H252.839V57.5971H252.806V57.698H252.772V57.799H252.738V57.8663H252.705V57.9672H252.671V58.0682H252.637V58.1692H252.604V58.2365H252.57V58.3374H252.536V58.4384H252.503V58.5393H252.469V58.6066H252.436V58.6739H252.402V58.7749H252.368V58.8422H252.335V58.9095H252.301V59.0105H252.267V59.0778H252.234V59.1451H252.2V59.246H252.166V59.3133H252.133V59.3806H252.099V59.4816H252.065V59.5489H252.032V59.6162H251.998V59.7172H251.964V59.7845H251.931V59.8518H251.897V59.9527H251.863V60.0201H251.83V60.0874H251.796V60.1883H251.762V60.2556H251.729V60.3229H251.695V60.3902H251.661V60.4912H251.628V60.5585H251.594V60.6258H251.561V60.7268H251.527V60.7941H251.493V60.8614H251.46V60.9623H251.426V61.0296H251.392V61.0969H251.359V61.1642H251.325V61.2315H251.291V61.2988H251.258V61.3661H251.224V61.4335H251.19V61.5008H251.157V61.5681H251.123V61.6354H251.089V61.7027H251.056V61.77H251.022V61.8373H250.988V61.9046H250.955V61.9719H250.921V62.0392H250.887V62.1065H250.854V62.1738H250.82V62.2411H250.787V62.3084H250.753V62.3757H250.719V62.443H250.686V62.5103H250.652V62.5776H250.618V62.6449H250.585V62.7123H250.551V62.7796H250.517V62.8469H250.484V62.9142H250.45V62.9815H250.416V63.0488H250.383V63.1161H250.349V63.1834H250.315V63.2507H250.282V63.318H250.248V63.3853H250.214V63.4526H250.181V63.5199H250.147V63.5872H250.113V63.6545H250.08V63.6882H250.046V63.7555H250.013V63.8228H249.979V63.8901H249.945V63.9574H249.912V63.991H249.878V64.0584H249.844V64.1257H249.811V64.193H249.777V64.2266H249.743V64.2939H249.71V64.3612H249.676V64.4285H249.642V64.4958H249.609V64.5295H249.575V64.5968H249.541V64.6641H249.508V64.7314H249.474V64.7987H249.44V64.8324H249.407V64.8997H249.373V64.967H249.339V65.0343H249.306V65.1016H249.272V65.1352H249.239V65.2025H249.205V65.2698H249.171V65.3372H249.138V65.4045H249.104V65.4381H249.07V65.5054H249.037V65.5727H249.003V65.64H248.969V65.7073H248.936V65.741H248.902V65.8083H248.868V65.8756H248.835V65.9429H248.801V65.9765H248.767V66.0439H248.734V66.0775H248.7V66.1448H248.666V66.2121H248.633V66.2458H248.599V66.3131H248.565V66.3804H248.532V66.414H248.498V66.4813H248.465V66.515H248.431V66.5823H248.397V66.6496H248.364V66.6833H248.33V66.7506H248.296V66.7842H248.263V66.8515H248.229V66.9188H248.195V66.9525H248.162V67.0198H248.128V67.0871H248.094V67.1207H248.061V67.188H248.027V67.2217H247.993V67.289H247.96V67.3563H247.926V67.39H247.892V67.4573H247.859V67.4909H247.825V67.5582H247.791V67.6255H247.758V67.6592H247.724V67.7265H247.69V67.7938H247.657V67.8274H247.623V67.8947H247.59V67.9284H247.556V67.9957H247.522V68.063H247.489V68.0967H247.455V68.164H247.421V68.1976H247.388V68.2649H247.354V68.3322H247.32V68.3659H247.287V68.4332H247.253V68.4668H247.219V68.5341H247.186V68.5678H247.152V68.6351H247.118V68.6688H247.085V68.7361H247.051V68.7697H247.017V68.837H246.984V68.8707H246.95V68.938H246.916V68.9716H246.883V69.0389H246.849V69.0726H246.816V69.1399H246.782V69.1735H246.748V69.2408H246.715V69.2745H246.681V69.3418H246.647V69.3755H246.614V69.4428H246.58V69.4764H246.546V69.5437H246.513V69.5774H246.479V69.6447H246.445V69.6783H246.412V69.7456H246.378V69.7793H246.344V69.8466H246.311V69.8802H246.277V69.9475H246.243V69.9812H246.21V70.0485H246.176V70.0822H246.142V70.1495H246.109V70.1831H246.075V70.2504H246.042V70.2841H246.008V70.3514H245.974V70.385H245.941V70.4523H245.907V70.486H245.873V70.5533H245.84V70.5869H245.806V70.6206H245.772V70.6879H245.739V70.7216H245.705V70.7889H245.671V70.8225H245.638V70.8898H245.604V70.9235H245.57V70.9571H245.537V71.0244H245.503V71.0581H245.469V71.1254H245.436V71.159H245.402V71.1927H245.368V71.26H245.335V71.2937H245.301V71.361H245.268V71.3946H245.234V71.4283H245.2V71.4956H245.167V71.5292H245.133V71.5629H245.099V71.6302H245.066V71.6638H245.032V71.6975H244.998V71.7648H244.965V71.7984H244.931V71.8321H244.897V71.8994H244.864V71.9331H244.83V71.9667H244.796V72.034H244.763V72.0677H244.729V72.1013H244.695V72.1686H244.662V72.2023H244.628V72.2359H244.594V72.3032H244.561V72.3369H244.527V72.3705H244.493V72.4378H244.46V72.4715H244.426V72.5051H244.393V72.5388H244.359V72.6061H244.325V72.6398H244.292V72.6734H244.258V72.7071H244.224V72.7744H244.191V72.808H244.157V72.8417H244.123V72.8753H244.09V72.9426H244.056V72.9763H244.022V73.0099H243.989V73.0436H243.955V73.1109H243.921V73.1445H243.888V73.1782H243.854V73.2118H243.82V73.2792H243.787V73.3128H243.753V73.3465H243.719V73.3801H243.686V73.4474H243.652V73.4811H243.619V73.5147H243.585V73.5484H243.551V73.6157H243.518V73.6493H243.484V73.683H243.45V73.7166H243.417V73.7839H243.383V73.8176H243.349V73.8512H243.316V73.8849H243.282V73.9186H243.248V73.9522H243.215V74.0195H243.181V74.0532H243.147V74.0868H243.114V74.1205H243.08V74.1541H243.046V74.1878H243.013V74.2551H242.979V74.2887H242.945V74.3224H242.912V74.356H242.878V74.3897H242.845V74.4233H242.811V74.457H242.777V74.5243H242.744V74.5579H242.71V74.5916H242.676V74.6253H242.643V74.6589H242.609V74.6926H242.575V74.7599H242.542V74.7935H242.508V74.8272H242.474V74.8608H242.441V74.8945H242.407V74.9281H242.373V74.9618H242.34V75.0291H242.306V75.0627H242.272V75.0964H242.239V75.13H242.205V75.1637H242.171V75.1973H242.138V75.231H242.104V75.2647H242.071V75.2983H242.037V75.332H242.003V75.3656H241.97V75.3993H241.936V75.4666H241.902V75.5002H241.869V75.5339H241.835V75.5675H241.801V75.6012H241.768V75.6348H241.734V75.6685H241.7V75.7021H241.667V75.7358H241.633V75.7694H241.599V75.8031H241.566V75.8367H241.532V75.8704H241.498V75.9041H241.465V75.9714H241.431V76.005H241.397V76.0387H241.364V76.0723H241.33V76.106H241.297V76.1396H241.263V76.1733H241.229V76.2069H241.196V76.2406H241.162V76.2742H241.128V76.3079H241.095V76.3415H241.061V76.3752H241.027V76.4088H240.994V76.4425H240.96V76.4761H240.926V76.5098H240.893V76.5434H240.859V76.5771H240.825V76.6108H240.792V76.6444H240.758V76.6781H240.724V76.7117H240.691V76.7454H240.657V76.779H240.623V76.8127H240.59V76.8463H240.556V76.88H240.523V76.9136H240.489V76.9473H240.455V76.9809H240.422V77.0146H240.388V77.0482H240.354V77.0819H240.321V77.1155H240.287V77.1492H240.253V77.1828H240.22V77.2165H240.186V77.2502H240.152V77.2838H240.119V77.3175H240.085V77.3511H240.051V77.3848H240.018V77.4184H239.984V77.4521H239.95V77.4857H239.917V77.5194H239.883V77.553H239.849V77.5867H239.816V77.6203H239.782V77.654H239.749V77.6876H239.715V77.7213H239.681V77.7549H239.648V77.7886H239.58V77.8222H239.547V77.8559H239.513V77.8896H239.479V77.9232H239.446V77.9569H239.412V77.9905H239.378V78.0242H239.345V78.0578H239.311V78.0915H239.277V78.1251H239.244V78.1588H239.21V78.1924H239.176V78.2261H239.109V78.2597H239.075V78.2934H239.042V78.327H239.008V78.3607H238.974V78.3943H238.941V78.428H238.907V78.4616H238.874V78.4953H238.84V78.5289H238.806V78.5626H238.773V78.5963H238.739V78.6299H238.705V78.6636H238.638V78.6972H238.604V78.7309H238.571V78.7645H238.537V78.7982H238.503V78.8318H238.47V78.8655H238.436V78.8991H238.369V78.9328H238.335V78.9664H238.301V79.0001H238.268V79.0337H238.234V79.0674H238.2V79.101H238.167V79.1347H238.1V79.1683H238.066V79.202H238.032V79.2357H237.999V79.2693H237.965V79.303H237.931V79.3366H237.864V79.3703H237.83V79.4039H237.797V79.4376H237.763V79.4712H237.729V79.5049H237.696V79.5385H237.662V79.5722H237.595V79.6058H237.561V79.6395H237.527V79.6731H237.494V79.7068H237.46V79.7404H237.426V79.7741H237.359V79.8077H237.326V79.8414H237.292V79.8751H237.258V79.9087H237.225V79.9424H237.157V79.976H237.124V80.0097H237.09V80.0433H237.056V80.077H237.023V80.1106H236.955V80.1443H236.922V80.1779H236.888V80.2116H236.854V80.2452H236.787V80.2789H236.753V80.3125H236.72V80.3462H236.686V80.3798H236.619V80.4135H236.585V80.4471H236.551V80.4808H236.518V80.5145H236.451V80.5481H236.417V80.5818H236.383V80.6154H236.35V80.6491H236.316V80.6827H236.249V80.7164H236.215V80.75H236.181V80.7837H236.148V80.8173H236.08V80.851H236.047V80.8846H236.013V80.9183H235.979V80.9519H235.912V80.9856H235.878V81.0192H235.845V81.0529H235.777V81.0865H235.744V81.1202H235.71V81.1538H235.643V81.1875H235.609V81.2212H235.576V81.2548H235.542V81.2885H235.475V81.3221H235.441V81.3558H235.407V81.3894H235.34V81.4231H235.306V81.4567H235.273V81.4904H235.205V81.524H235.172V81.5577H235.138V81.5913H235.071V81.625H235.037V81.6586H235.003V81.6923H234.936V81.7259H234.903V81.7596H234.869V81.7932H234.802V81.8269H234.768V81.8606H234.734V81.8942H234.701V81.9279H234.633V81.9615H234.6V81.9952H234.566V82.0288H234.499V82.0625H234.465V82.0961H234.398V82.1298H234.364V82.1634H234.33V82.1971H234.263V82.2307H234.229V82.2644H234.162V82.298H234.129V82.3317H234.095V82.3653H234.028V82.399H233.994V82.4326H233.927V82.4663H233.893V82.5H233.859V82.5336H233.792V82.5673H233.758V82.6009H233.691V82.6346H233.657V82.6682H233.59V82.7019H233.556V82.7355H233.523V82.7692H233.455V82.8028H233.422V82.8365H233.355V82.8701H233.321V82.9038H233.287V82.9374H233.22V82.9711H233.186V83.0047H233.119V83.0384H233.085V83.072H233.052V83.1057H232.984V83.1393H232.951V83.173H232.883V83.2067H232.85V83.2403H232.782V83.274H232.749V83.3076H232.681V83.3413H232.648V83.3749H232.581V83.4086H232.547V83.4422H232.48V83.4759H232.446V83.5095H232.379V83.5432H232.345V83.5768H232.278V83.6105H232.244V83.6441H232.177V83.6778H232.143V83.7114H232.076V83.7451H232.042V83.7787H231.975V83.8124H231.941V83.8461H231.874V83.8797H231.84V83.9134H231.773V83.947H231.739V83.9807H231.672V84.0143H231.638V84.048H231.571V84.0816H231.504V84.1153H231.47V84.1489H231.403V84.1826H231.369V84.2162H231.302V84.2499H231.268V84.2835H231.201V84.3172H231.133V84.3508H231.1V84.3845H231.032V84.4181H230.999V84.4518H230.932V84.4855H230.864V84.5191H230.831V84.5528H230.763V84.5864H230.73V84.6201H230.662V84.6537H230.595V84.6874H230.561V84.721H230.494V84.7547H230.46V84.7883H230.393V84.822H230.326V84.8556H230.292V84.8893H230.225V84.9229H230.191V84.9566H230.124V84.9902H230.057V85.0239H230.023V85.0575H229.956V85.0912H229.888V85.1248H229.855V85.1585H229.787V85.1922H229.72V85.2258H229.686V85.2595H229.619V85.2931H229.552V85.3268H229.484V85.3604H229.451V85.3941H229.384V85.4277H229.316V85.4614H229.283V85.495H229.215V85.5287H229.148V85.5623H229.114V85.596H229.047V85.6296H228.98V85.6633H228.912V85.6969H228.879V85.7306H228.811V85.7642H228.744V85.7979H228.71V85.8316H228.643V85.8652H228.576V85.8989H228.542V85.9325H228.475V85.9662H228.408V85.9998H228.34V86.0335H228.307V86.0671H228.239V86.1008H228.172V86.1344H228.105V86.1681H228.037V86.2017H227.97V86.2354H227.936V86.269H227.869V86.3027H227.802V86.3363H227.735V86.37H227.667V86.4036H227.634V86.4373H227.566V86.471H227.499V86.5046H227.432V86.5383H227.364V86.5719H227.331V86.6056H227.263V86.6392H227.196V86.6729H227.129V86.7065H227.061V86.7402H227.028V86.7738H226.961V86.8075H226.893V86.8411H226.826V86.8748H226.759V86.9084H226.691V86.9421H226.624V86.9757H226.557V87.0094H226.523V87.043H226.456V87.0767H226.388V87.1103H226.321V87.144H226.254V87.1777H226.187V87.2113H226.119V87.245H226.052V87.2786H225.985V87.3123H225.917V87.3459H225.85V87.3796H225.783V87.4132H225.715V87.4469H225.682V87.4805H225.614V87.5142H225.547V87.5478H225.48V87.5815H225.413V87.6151H225.345V87.6488H225.278V87.6824H225.211V87.7161H225.143V87.7497H225.076V87.7834H225.009V87.8171H224.941V87.8507H224.874V87.8844H224.807V87.918H224.739V87.9517H224.672V87.9853H224.605V88.019H224.538V88.0526H224.47V88.0863H224.403V88.1199H224.336V88.1536H224.268V88.1872H224.201V88.2209H224.134V88.2545H224.066V88.2882H223.999V88.3218H223.932V88.3555H223.865V88.3891H223.797V88.4228H223.696V88.4565H223.629V88.4901H223.562V88.5238H223.494V88.5574H223.427V88.5911H223.36V88.6247H223.292V88.6584H223.225V88.692H223.158V88.7257H223.057V88.7593H222.99V88.793H222.922V88.8266H222.855V88.8603H222.788V88.8939H222.72V88.9276H222.619V88.9612H222.552V88.9949H222.485V89.0285H222.417V89.0622H222.316V89.0958H222.249V89.1295H222.182V89.1632H222.115V89.1968H222.014V89.2305H221.946V89.2641H221.879V89.2978H221.812V89.3314H221.711V89.3651H221.643V89.3987H221.576V89.4324H221.509V89.466H221.442V89.4997H221.341V89.5333H221.273V89.567H221.206V89.6006H221.139V89.6343H221.038V89.6679H220.97V89.7016H220.903V89.7352H220.802V89.7689H220.735V89.8026H220.634V89.8362H220.567V89.8699H220.499V89.9035H220.398V89.9372H220.331V89.9708H220.23V90.0045H220.163V90.0381H220.095V90.0718H219.994V90.1054H219.927V90.1391H219.826V90.1727H219.759V90.2064H219.692V90.24H219.591V90.2737H219.523V90.3073H219.422V90.341H219.355V90.3746H219.288V90.4083H219.187V90.442H219.119V90.4756H219.019V90.5093H218.951V90.5429H218.884V90.5766H218.783V90.6102H218.716V90.6439H218.615V90.6775H218.547V90.7112H218.446V90.7448H218.379V90.7785H218.278V90.8121H218.211V90.8458H218.11V90.8794H218.009V90.9131H217.942V90.9467H217.841V90.9804H217.74V91.014H217.672V91.0477H217.571V91.0813H217.504V91.115H217.403V91.1487H217.302V91.1823H217.235V91.216H217.134V91.2496H217.067V91.2833H216.966V91.3169H216.865V91.3506H216.797V91.3842H216.697V91.4179H216.629V91.4515H216.528V91.4852H216.427V91.5188H216.36V91.5525H216.259V91.5861H216.192V91.6198H216.091V91.6534H215.99V91.6871H215.889V91.7207H215.822V91.7544H215.721V91.7881H215.62V91.8217H215.519V91.8554H215.418V91.889H215.317V91.9227H215.249V91.9563H215.148V91.99H215.048V92.0236H214.947V92.0573H214.846V92.0909H214.745V92.1246H214.677V92.1582H214.576V92.1919H214.475V92.2255H214.374V92.2592H214.274V92.2928H214.173V92.3265H214.105V92.3601H214.004V92.3938H213.903V92.4275H213.802V92.4611H213.701V92.4948H213.6V92.5284H213.533V92.5621H213.432V92.5957H213.298V92.6294H213.197V92.663H213.096V92.6967H212.995V92.7303H212.894V92.764H212.793V92.7976H212.692V92.8313H212.591V92.8649H212.49V92.8986H212.389V92.9322H212.288V92.9659H212.187V92.9995H212.052V93.0332H211.951V93.0669H211.851V93.1005H211.75V93.1342H211.649V93.1678H211.548V93.2015H211.447V93.2351H211.346V93.2688H211.245V93.3024H211.144V93.3361H211.043V93.3697H210.942V93.4034H210.807V93.437H210.706V93.4707H210.605V93.5043H210.471V93.538H210.37V93.5716H210.269V93.6053H210.134V93.6389H210.033V93.6726H209.899V93.7062H209.798V93.7399H209.697V93.7736H209.562V93.8072H209.461V93.8409H209.36V93.8745H209.226V93.9082H209.125V93.9418H209.024V93.9755H208.889V94.0091H208.788V94.0428H208.687V94.0764H208.553V94.1101H208.452V94.1437H208.317V94.1774H208.216V94.211H208.115V94.2447H207.98V94.2783H207.846V94.312H207.745V94.3456H207.61V94.3793H207.476V94.413H207.375V94.4466H207.24V94.4803H207.106V94.5139H206.971V94.5476H206.87V94.5812H206.735V94.6149H206.601V94.6485H206.5V94.6822H206.365V94.7158H206.231V94.7495H206.13V94.7831H205.995V94.8168H205.86V94.8504H205.759V94.8841H205.625V94.9177H205.49V94.9514H205.389V94.985H205.255V95.0187H205.12V95.0524H204.985V95.086H204.851V95.1197H204.716V95.1533H204.582V95.187H204.447V95.2206H204.312V95.2543H204.178V95.2879H204.043V95.3216H203.909V95.3552H203.774V95.3889H203.639V95.4225H203.505V95.4562H203.37V95.4898H203.235V95.5235H203.101V95.5571H202.966V95.5908H202.832V95.6244H202.663V95.6581" fill="black"/>
</g>
</svg>
